<svg xmlns="http://www.w3.org/2000/svg" xmlns:xlink="http://www.w3.org/1999/xlink" width="302" height="233" viewBox="0 0 302 233">
  <defs>
    <linearGradient id="linear-gradient" x1="0.5" y1="1" x2="0.5" gradientUnits="objectBoundingBox">
      <stop offset="0" stop-color="gray" stop-opacity="0.251"/>
      <stop offset="0.54" stop-color="gray" stop-opacity="0.122"/>
      <stop offset="1" stop-color="gray" stop-opacity="0.102"/>
    </linearGradient>
    <linearGradient id="linear-gradient-2" x1="0.5" x2="0.5" xlink:href="#linear-gradient"/>
  </defs>
  <g id="Group_1266" data-name="Group 1266" transform="translate(2159 1031)">
    <rect id="Rectangle_686" data-name="Rectangle 686" width="302" height="233" transform="translate(-2159 -1031)" fill="none"/>
    <g id="Group_1265" data-name="Group 1265" transform="translate(-275.995 844.178)">
      <g id="Group_1223" data-name="Group 1223" transform="translate(-1858.391 -1843.455)">
        <g id="Group_1216" data-name="Group 1216" transform="translate(0 0)">
          <g id="browser" transform="translate(0 0)">
            <path id="Path_2227" data-name="Path 2227" d="M431.42,246.96V117H178.65V239.5a50.323,50.323,0,0,0,11.159,6.823q2.992,1.379,6.111,2.521H428.4Z" transform="translate(-178.65 -117)" fill="url(#linear-gradient)"/>
            <path id="Path_2228" data-name="Path 2228" d="M432.459,257.293V131H180.73V250.059a50.835,50.835,0,0,0,11.106,6.642q2.981,1.328,6.09,2.45H429.448Z" transform="translate(-180.177 -127.28)" fill="#fff"/>
            <rect id="Rectangle_646" data-name="Rectangle 646" width="251.726" height="6.68" transform="translate(0.555 0.369)" fill="#238ee9"/>
          </g>
          <g id="buttons" transform="translate(3.855 1.982)">
            <circle id="Ellipse_158" data-name="Ellipse 158" cx="1.727" cy="1.727" r="1.727" fill="#fff"/>
            <circle id="Ellipse_159" data-name="Ellipse 159" cx="1.727" cy="1.727" r="1.727" transform="translate(4.65)" fill="#fff"/>
            <circle id="Ellipse_160" data-name="Ellipse 160" cx="1.727" cy="1.727" r="1.727" transform="translate(9.299)" fill="#fff"/>
          </g>
          <g id="boxes" transform="translate(7.309 21.729)">
            <rect id="Rectangle_647" data-name="Rectangle 647" width="41.581" height="26.129" transform="translate(57.574)" fill="#238ee9"/>
            <rect id="Rectangle_648" data-name="Rectangle 648" width="41.581" height="26.129" fill="#5a5773" opacity="0.2"/>
            <rect id="Rectangle_649" data-name="Rectangle 649" width="41.581" height="26.129" transform="translate(115.148)" fill="#5a5773" opacity="0.2"/>
            <rect id="Rectangle_650" data-name="Rectangle 650" width="41.581" height="26.129" transform="translate(0 37.354)" fill="#5a5773" opacity="0.2"/>
            <rect id="Rectangle_651" data-name="Rectangle 651" width="41.581" height="26.129" transform="translate(57.574 37.354)" fill="#5a5773" opacity="0.2"/>
            <rect id="Rectangle_652" data-name="Rectangle 652" width="41.581" height="26.129" transform="translate(115.148 37.354)" fill="#5a5773" opacity="0.2"/>
            <rect id="Rectangle_653" data-name="Rectangle 653" width="41.581" height="26.129" transform="translate(0 74.706)" fill="#5a5773" opacity="0.2"/>
            <rect id="Rectangle_654" data-name="Rectangle 654" width="41.581" height="26.129" transform="translate(57.574 74.706)" fill="#5a5773" opacity="0.2"/>
            <rect id="Rectangle_655" data-name="Rectangle 655" width="41.581" height="26.129" transform="translate(115.148 74.706)" fill="#5a5773" opacity="0.2"/>
          </g>
          <g id="woman" transform="translate(55.225 28.254)">
            <path id="Path_2229" data-name="Path 2229" d="M430.305,282.286s-7.469-13.651-6.209-15.873a30.251,30.251,0,0,0,2.187-5.436s2.758-1.886,2.758-2.657,2.184-2.553,3.335-3.329.574-4.44,0-4.883a10.12,10.12,0,0,1-1.485-2s.8-2.219,0-2.885.117-1.328,0-2a26.81,26.81,0,0,1,0-3.106,5.007,5.007,0,0,0-2.939-2.126l-.085-.351-.492-2.07s2.391-4.583-1.488-6.982a6.486,6.486,0,0,0-.858-.452,2.976,2.976,0,0,0-.021-.3,18.778,18.778,0,0,0-.563-3.51c-.2-.643-.465-1.076-.8-.978a.532.532,0,0,0-.218.125,2.424,2.424,0,0,0-.412.486h0a.108.108,0,0,1-.019.029,8.333,8.333,0,0,0-.914,2.537,14.66,14.66,0,0,0-.266,1.594h0a8.772,8.772,0,0,0-.444.986c-.47,1.22-1.02,3.332-.019,4.894.85,1.328,2,3.154,2.827,4.482l.027.043.051.082-.088.056v.2l.077,1.119.643,9.666a4.106,4.106,0,0,0-.59-.125,5.355,5.355,0,0,0-.858-.056c-.561-2.2-2.1-4.251-2.391-6.552a6.069,6.069,0,0,1-.045-.693c.024-1.448.385-2.9.356-4.347,0-.266,0-.531-.027-.8h0a2.125,2.125,0,0,0-.021-.221,6.534,6.534,0,0,0-3.552-4.95c-.667-.332-1.39-.553-2.038-.917-1.5-.84-2.458-2.354-3.818-3.393a4.226,4.226,0,0,0-3.653-.8,16.865,16.865,0,0,0-1.778.367h0a16.035,16.035,0,0,0-4.068,1.69c-.173.1-.345.21-.51.332a2.248,2.248,0,0,0-.821.959,2.513,2.513,0,0,0-.128,1.034c0,.252,0,.51.016.763-.074,4.251-4.655,7.54-5.032,11.691,0,.1-.016.2-.021.295v.454h0v.332c.066,1.82,1.012,3.515,1.185,5.327.016.162.024.321.027.484a8.036,8.036,0,0,1-.47,2.439,7.14,7.14,0,0,0-1.65.67c-1.392.9-3.906,2.442-4.822,5.4a7.907,7.907,0,0,0-.348,2.37,49.493,49.493,0,0,1-.776,8.462,15.83,15.83,0,0,1-.489,2.08.489.489,0,0,0-.016.2L388,279.334l-.1,1.262-.138,1.8s.04.109.1.292a8.452,8.452,0,0,1,.218.829,4.459,4.459,0,0,1,.072,1.86,1.281,1.281,0,0,1-.388.683.287.287,0,0,0-.045.05,5.519,5.519,0,0,0-.42,1.828c-.048.372-.093.8-.138,1.238-.266,2.83-.43,7.065-.531,10.567-.1,3.454-.13,6.183-.13,6.183a7.053,7.053,0,0,0,1.427.707c-.037.093-.077.189-.114.29a13.956,13.956,0,0,0-.866,3.651c-.223,2.612.507,5.513,4.15,7.006a5.867,5.867,0,0,0,.715.244,2.267,2.267,0,0,0,1.817-.112c0,.157.019.308.027.46.037.648.069,1.241.085,1.738.114,3.109.885,8.545.885,8.545a11.315,11.315,0,0,1,.035,2.885,15.667,15.667,0,0,0,0,3.329s.8,1.329,0,2-1.034,3.985-.8,4.44a.151.151,0,0,1,.013.051c.175,1.1-.816,17.485-.816,17.485s-.938,2.508-1.684,5.112c-.728,2.535-1.275,5.16-.6,5.651a5.64,5.64,0,0,0,2.1.569c0,.109-.016.218-.027.329a9.468,9.468,0,0,1-.465,2.753c-.316.452-.648,3.954-.81,5.845l-.016.21a19.565,19.565,0,0,0-.856,2.482s-2.543,6.377-1.682,8.032a1.356,1.356,0,0,0,.316.391h0a.721.721,0,0,0,.082.074c1.225.98,4.294,1.185,5.407,1.23l-.042,1.578v.058h1.448v-.04c0-.2.032-1.113.08-2.336,0-.218.016-.446.027-.68,0-.183.019-.369.027-.561a9.829,9.829,0,0,0,.63-3.547,15.566,15.566,0,0,1,.558-4.113,11.425,11.425,0,0,1,.736-2.006,9.158,9.158,0,0,0-.178-4.084,2.949,2.949,0,0,0-.531-.919v-.531a15.33,15.33,0,0,1,.34-3.406.377.377,0,0,1,0-.053c.021-.093.045-.181.069-.266l.016-.058.47.016c1.443.04,2.5.04,2.5.04a53.979,53.979,0,0,0,1.036-8.433v-.345a32.846,32.846,0,0,1,.7-5.981l.927-8.994a4.73,4.73,0,0,1,0-2.657c.284-.686.872-1.958,1.281-2.835.191-.406.343-.725.406-.864l.037-.074a1.722,1.722,0,0,1-.409-.2h0c-.375-.25-.709-.739.412-1.459,1.724-1.111,1.15-3.884,1.15-3.884a1.994,1.994,0,0,1,.09-1.886c.6-.887,0-4.217,0-4.217a13.941,13.941,0,0,0,1.18-2.777c.428-1.328,1.509-7.825,2.019-10.957.167-1.028.266-1.692.266-1.692l.016.162.016.175h0l.143,1.48.019.2.266,2.8a86.125,86.125,0,0,1,.2,10.237v.053a3.408,3.408,0,0,1-.194.874c-.611,1.382-.5,6.871-.468,8.085v.244a4.89,4.89,0,0,0-.324,1.876h0a1.2,1.2,0,0,0,.21.558,1.413,1.413,0,0,1,.2.863v.027a3.132,3.132,0,0,1-.032.383,7.294,7.294,0,0,1-.4,1.5,5.5,5.5,0,0,0-.383,2.468h0a.781.781,0,0,0,.151.3.709.709,0,0,1,.088.319.111.111,0,0,0,0,.029c.215,1.788-.34,9.682-.67,14-.133,1.706-.229,2.854-.229,2.854l-.911,9.432.09.064c.1.074.3.2.558.356v.021l-.04.284c-.13.909-.306,1.966-.5,2.774-.016.061-.029.12-.045.175a2.543,2.543,0,0,0-.975.391c-1.934,3.435-1.079,6.159,0,6.951a2.792,2.792,0,0,1,.651,1.623l.266,3.425v.393a1.02,1.02,0,0,0,.05.314l.082,1.039.112,1.445h.882v-1.751h.048c1.392.048,3.637.106,4.615.029h.027a1.729,1.729,0,0,0,.266-.029.665.665,0,0,0,.154-.042c.518-.25,1.809-3.911.646-4.743s-1.421-3.188-1.421-3.188c-.1-.308-.2-.6-.306-.879v-.181a14.611,14.611,0,0,1,.138-3.045,23.157,23.157,0,0,0,.3-3.637v-.337a4.538,4.538,0,0,0,.592-.194l.042-.019a4.176,4.176,0,0,0,.991-.587l3.252-14.411.343-1.677,1.953-9.536s-.688-3.329,0-3.882c.252-.2.322-1.063.306-2.059-.027-1.743-.306-3.935-.306-3.935s.919-1.443,1.382-2.33,0-3.218,0-3.218l.906-5.335a50.421,50.421,0,0,1,3.563-11.653c1.86-3.919.675-14.5-.531-20.134-.032-.146-.064-.29-.1-.428V294.1c.569-.282,1.265-.622,2.009-.978l.282-.133c.943-.444,1.942-.9,2.838-1.281l.059-.024a19.824,19.824,0,0,1,1.974-.739,3.311,3.311,0,0,1,.606-.125C435.133,290.719,430.305,282.286,430.305,282.286ZM394.354,300.34h.478c-.056.1-.109.21-.162.316-.032.064-.064.125-.093.189-.175.364-.337.736-.47,1.1.053-.393.12-.821.194-1.278C394.32,300.566,394.338,300.446,394.354,300.34Zm-1.291,6.927a.2.2,0,0,0,0-.037l-.04-.125c-.029-.085-.056-.17-.082-.266q.247-.074.5-.167h.035v.088c-.013.125-.029.25-.045.372h0a.272.272,0,0,1,0,.048,2.581,2.581,0,0,1-.035.292c-.024.191-.048.377-.069.555-.05-.167-.1-.332-.154-.494a1.257,1.257,0,0,1-.112-.266Z" transform="translate(-386.5 -223.338)" fill="url(#linear-gradient-2)"/>
            <path id="Path_2230" data-name="Path 2230" d="M521.181,241.183l-2.87,1.015-1.042-1.727c-.8-1.328-1.9-3.146-2.718-4.466-1.44-2.322.444-5.861.444-5.861s.34-3.552,1.552-4.647,1.549,4.647,1.549,4.647c4.865,2.211,2.258,7.41,2.258,7.41l.473,2.062Z" transform="translate(-480.13 -224.821)" fill="#fdc2cc"/>
            <path id="Path_2231" data-name="Path 2231" d="M530.191,280.323l-2.869,1.015-1.042-1.727v-.151a5,5,0,0,1,3.563-.7Z" transform="translate(-489.141 -263.961)" opacity="0.1"/>
            <path id="Path_2232" data-name="Path 2232" d="M523.56,292.875,525,291.658l-.72-10.952a4.55,4.55,0,0,1,6.472,1.437,27.94,27.94,0,0,0,0,3.1c.112.664-.773,1.328,0,1.99s0,2.878,0,2.878a9.987,9.987,0,0,0,1.427,1.99c.553.441,1.108,4.094,0,4.868s-3.186,2.545-3.186,3.319-2.657,2.657-2.657,2.657L524,299.857Z" transform="translate(-487.144 -264.875)" fill="#f9ef75"/>
            <path id="Path_2233" data-name="Path 2233" d="M395.42,539.941c-5.362-2.274-4.171-7.83-3.162-10.628a14.473,14.473,0,0,1,.709-1.658l3.008-1.825s.614,1.565,1.27,3.664C398.768,534.378,400.518,542.107,395.42,539.941Z" transform="translate(-390.09 -445.459)" fill="#fdc2cc"/>
            <path id="Path_2234" data-name="Path 2234" d="M414.9,765.759a9.034,9.034,0,0,0-.8,2.237,16.154,16.154,0,0,0-.345,3.807c.021.885.1,1.464.1,1.464l-5.973,4.108s.035-.481.093-1.188c.154-1.881.476-5.372.778-5.824a9.693,9.693,0,0,0,.449-2.742c.093-1.169.13-2.195.13-2.195S416.518,762.733,414.9,765.759Z" transform="translate(-402.199 -620.584)" fill="#efb7b9"/>
            <path id="Path_2235" data-name="Path 2235" d="M471.215,779.329s0,1.143-.043,2.471a25.3,25.3,0,0,1-.29,3.627,14.923,14.923,0,0,0-.135,3.034c.04,1.328.135,2.524.135,2.524s-6.1-5.766-5.476-6.223a2.826,2.826,0,0,0,.484-1.267c.186-.8.353-1.86.478-2.763.149-1.076.242-1.942.242-1.942Z" transform="translate(-444.409 -631.208)" fill="#efb7b9"/>
            <path id="Path_2236" data-name="Path 2236" d="M418.586,765.759a9.034,9.034,0,0,0-.8,2.237,48.824,48.824,0,0,1-4.889-.375c.09-1.142.13-2.195.13-2.195S420.2,762.733,418.586,765.759Z" transform="translate(-405.886 -620.584)" opacity="0.1"/>
            <path id="Path_2237" data-name="Path 2237" d="M474,779.344s0,1.142-.043,2.471a6.648,6.648,0,0,1-4.8-1.063c.149-1.076.242-1.942.242-1.942Z" transform="translate(-447.19 -631.223)" opacity="0.1"/>
            <path id="Path_2238" data-name="Path 2238" d="M438.849,502.53a51.606,51.606,0,0,0-3.43,11.616l-.885,5.314s.444,2.322,0,3.207-1.328,2.325-1.328,2.325.664,5.42,0,5.973,0,3.871,0,3.871L430.993,546l-3.1,14.379c-2.986,2.436-6.961-.662-6.961-.662l.877-9.4s1.328-16.473.776-17.148.221-2.766.221-2.766.776-1.993.223-2.766.109-2.434.109-2.434-.221-6.749.444-8.3,0-11.13,0-11.13l-.266-2.984-.154-1.653-.013-.162s-.1.662-.266,1.687c-.489,3.122-1.53,9.592-1.942,10.923a14.223,14.223,0,0,1-1.135,2.766s.574,3.319,0,4.2a2.058,2.058,0,0,0-.088,1.881s.553,2.766-1.108,3.871,0,1.661,0,1.661-1.217,2.657-1.658,3.76a4.919,4.919,0,0,0,0,2.657l-.885,8.959a32.41,32.41,0,0,0-.664,6.3,55.4,55.4,0,0,1-1,8.407s-8.518,0-9.831-1,2.192-10.716,2.192-10.716,1-17.036.773-17.477,0-3.762.776-4.424,0-1.993,0-1.993a16.318,16.318,0,0,1,0-3.319,11.773,11.773,0,0,0-.035-2.878s-.741-5.42-.85-8.518-.664-10.065-.664-10.065.579-4.31.667-6.361a7.225,7.225,0,0,1,.8-2.585,23.069,23.069,0,0,1,1.647-2.891s26.211-7.748,27.311-6.977c.292.2.717,1.594,1.137,3.606C439.5,488.076,440.64,498.624,438.849,502.53Z" transform="translate(-399.558 -410.923)"/>
            <circle id="Ellipse_161" data-name="Ellipse 161" cx="7.633" cy="7.633" r="7.633" transform="translate(15.509 8.729)" fill="#a1616a"/>
            <path id="Path_2239" data-name="Path 2239" d="M449.238,482.462c-.879.452-1.469.763-1.469.763s-12.389,5.864-15.913,5.532c-2.726-.266-9.685-.114-12.716-.04a23.077,23.077,0,0,1,1.647-2.891S447,478.08,448.1,478.851C448.393,479.061,448.818,480.445,449.238,482.462Z" transform="translate(-410.468 -410.922)" opacity="0.1"/>
            <path id="Path_2240" data-name="Path 2240" d="M412.3,325.409s-7.07,1.116-8.739,2.211-4.974,3.21-4.974,7.745a43.942,43.942,0,0,1-1.217,10.508c-.444,1.326,6.969,12.057,6.969,12.057l-2.657,16.263s10.628-.332,14.167,0,15.923-5.532,15.923-5.532,7.3-3.871,8.85-3.985-3.1-8.518-3.1-8.518-7.192-13.6-5.976-15.817a30.569,30.569,0,0,0,2.11-5.42l-1.328-11.281a4.34,4.34,0,0,0-3.651.553c-1.661,1.217-7.3.553-7.3.553Z" transform="translate(-394.466 -296.857)" fill="#f9ef75"/>
            <path id="Path_2241" data-name="Path 2241" d="M395.289,389.775l-2.774.773-.768,10.41s1,2.766,0,3.651-1.217,19.8-1.217,19.8a7.234,7.234,0,0,0,6.969.553s-.553-2.1,1.108-9.735a60.824,60.824,0,0,0,1.658-11.5s0-9.515.776-11.064,0-5.42,0-5.42-1.549-2.1-1.44-2.875S395.289,389.775,395.289,389.775Z" transform="translate(-389.459 -341.532)" opacity="0.1"/>
            <path id="Path_2242" data-name="Path 2242" d="M399.647,529.524a7.065,7.065,0,0,1-4.987-.181,14.478,14.478,0,0,1,.709-1.658l3.008-1.825S399,527.425,399.647,529.524Z" transform="translate(-392.492 -445.481)" opacity="0.1"/>
            <path id="Path_2243" data-name="Path 2243" d="M394.666,389.746l-2.766.773-.773,10.41s1,2.766,0,3.651-1.217,19.8-1.217,19.8a7.225,7.225,0,0,0,6.969.542s-.553-2.1,1.105-9.735a61.316,61.316,0,0,0,1.661-11.5s0-9.515.773-11.064,0-5.42,0-5.42-1.549-2.1-1.437-2.875S394.666,389.746,394.666,389.746Z" transform="translate(-389.004 -341.502)" fill="#f9ef75"/>
            <path id="Path_2244" data-name="Path 2244" d="M498.8,411.15s-1.437,12.389-5.643,14.714C493.16,425.864,502.563,423.21,498.8,411.15Z" transform="translate(-464.821 -361.249)" opacity="0.1"/>
            <path id="Path_2245" data-name="Path 2245" d="M434.88,415.32s5.2,2.543,3.985,4.312S434.88,415.32,434.88,415.32Z" transform="translate(-422.026 -364.311)" opacity="0.1"/>
            <path id="Path_2246" data-name="Path 2246" d="M434.88,434.47s3.319,3.43,2.657,4.647S434.88,434.47,434.88,434.47Z" transform="translate(-422.026 -378.373)" opacity="0.1"/>
            <path id="Path_2247" data-name="Path 2247" d="M535.63,327.47a11.759,11.759,0,0,1,1.427,3.651C537.182,332.561,535.63,327.47,535.63,327.47Z" transform="translate(-496.007 -299.802)" opacity="0.1"/>
            <path id="Path_2248" data-name="Path 2248" d="M535.63,315.548s.654-.555,2.322,0S535.63,315.548,535.63,315.548Z" transform="translate(-496.007 -290.867)" opacity="0.1"/>
            <path id="Path_2249" data-name="Path 2249" d="M484.949,553.045a15.383,15.383,0,0,1-8.09-1.036l-1.395,3.571-.154-1.653c.228-1.387.672-2.872,1.549-3.247A13.427,13.427,0,0,0,484.949,553.045Z" transform="translate(-451.714 -463.706)" opacity="0.1"/>
            <path id="Path_2250" data-name="Path 2250" d="M426.18,577.07s6.8,1.411,8.712,1.161Z" transform="translate(-415.637 -483.085)" opacity="0.1"/>
            <path id="Path_2251" data-name="Path 2251" d="M428.84,583.749a14.057,14.057,0,0,1,4.355.457Z" transform="translate(-417.59 -487.981)" opacity="0.1"/>
            <path id="Path_2252" data-name="Path 2252" d="M430.09,588.31a26.043,26.043,0,0,0,4.023.531Z" transform="translate(-418.508 -491.338)" opacity="0.1"/>
            <path id="Path_2253" data-name="Path 2253" d="M429.46,643.4c.125-.082,5.808-1.411,6.515-.457Z" transform="translate(-418.046 -531.202)" opacity="0.1"/>
            <path id="Path_2254" data-name="Path 2254" d="M429.46,651.455s4.937-.582,5.062,0S429.46,651.455,429.46,651.455Z" transform="translate(-418.046 -537.516)" opacity="0.1"/>
            <path id="Path_2255" data-name="Path 2255" d="M429.46,655.708s5.269-1.089,5.891-.824S429.46,655.708,429.46,655.708Z" transform="translate(-418.046 -540.193)" opacity="0.1"/>
            <path id="Path_2256" data-name="Path 2256" d="M413.893,791.875l-5.973,4.108s.035-.481.093-1.188a16.1,16.1,0,0,1,3.058-4.992,2.448,2.448,0,0,1,2.726.608C413.818,791.293,413.893,791.875,413.893,791.875Z" transform="translate(-402.229 -639.189)" opacity="0.1"/>
            <path id="Path_2257" data-name="Path 2257" d="M407.449,796.016a14.824,14.824,0,0,0-1.246,6.111,9.477,9.477,0,0,1-1.265,4.918,4.841,4.841,0,0,1-.42.6s-4.15-.034-5.6-1.238a1.438,1.438,0,0,1-.391-.478c-.832-1.658,1.618-8.005,1.618-8.005a17.628,17.628,0,0,1,3.9-7.509C408.692,789.212,407.449,796.016,407.449,796.016Z" transform="translate(-395.203 -639.64)"/>
            <path id="Path_2258" data-name="Path 2258" d="M406.493,828.259a4.847,4.847,0,0,1-.42.6s-4.15-.035-5.6-1.238c.715-2.365,2.994-9.52,4.062-8.3C405.537,820.461,406.236,825.958,406.493,828.259Z" transform="translate(-396.758 -660.867)" opacity="0.1"/>
            <path id="Path_2259" data-name="Path 2259" d="M420.2,819.755l-.29,10.718H421.3s.226-9.4.848-10.718S420.2,819.755,420.2,819.755Z" transform="translate(-411.033 -660.859)"/>
            <path id="Path_2260" data-name="Path 2260" d="M470.883,803.886s-6.1-5.766-5.476-6.223a2.826,2.826,0,0,0,.484-1.267c1.172-.2,3.188.284,4.857,4.966C470.787,802.69,470.883,803.886,470.883,803.886Z" transform="translate(-444.409 -644.109)" opacity="0.1"/>
            <path id="Path_2261" data-name="Path 2261" d="M467.482,810.782a.625.625,0,0,1-.146.043,43.343,43.343,0,0,1-4.841,0,1.047,1.047,0,0,1-1.012-1.044c0-.4,0-.885-.032-1.4-.069-1.637-.266-3.584-.853-4.023-1.039-.8-1.86-3.5,0-6.927,0,0,3.566-2.723,6.138,5.463,0,0,.25,2.335,1.368,3.164S467.981,810.546,467.482,810.782Z" transform="translate(-440.097 -644.575)"/>
            <path id="Path_2262" data-name="Path 2262" d="M472.735,829.879a43.328,43.328,0,0,1-4.841,0,1.047,1.047,0,0,1-1.012-1.044c0-.4,0-.885-.032-1.4.449-1.982,1.095-4.023,1.926-4.488C468.782,822.942,471.3,822.657,472.735,829.879Z" transform="translate(-445.501 -663.629)" opacity="0.1"/>
            <path id="Path_2263" data-name="Path 2263" d="M423.46,798.48l.67,8.919h.85V797.72Z" transform="translate(-402.507 -639.407)"/>
            <path id="Path_2264" data-name="Path 2264" d="M431.339,239.084a15.256,15.256,0,0,0-6.807,2.187,2.829,2.829,0,0,0-1.283,1.289,4.27,4.27,0,0,0-.1,1.594c.072,4.575-5.03,8.037-4.87,12.61.064,1.815.975,3.5,1.142,5.314.279,3.018-1.507,5.795-3.218,8.295a6.871,6.871,0,0,0,4.849-1.607,36.77,36.77,0,0,1,.678,18.532h2.447a1.86,1.86,0,0,1,.715.088,1.8,1.8,0,0,1,.566.422c2.288,2.277,3.821,5.643,2.947,8.752l5.208-1.953a15.468,15.468,0,0,0,3.595-1.714,5.191,5.191,0,0,0,2.221-3.2c.141-.8.1-1.748.752-2.211a4.091,4.091,0,0,1,1.026-.38c1.429-.5,2.062-2.157,2.354-3.645a20.989,20.989,0,0,0,.332-5.545c-.231-3.109-1.15-6.265-.393-9.3.428-1.7,1.379-3.289,1.456-5.048.125-2.9-2.142-5.4-2.479-8.279-.236-2.009.489-4.041.252-6.05A6.5,6.5,0,0,0,439.3,244.3c-.64-.329-1.328-.55-1.961-.914-1.443-.837-2.365-2.343-3.675-3.38s-3.491-1.427-4.477-.08Z" transform="translate(-408.309 -234.886)" opacity="0.1"/>
            <path id="Path_2265" data-name="Path 2265" d="M431.339,237.82a15.256,15.256,0,0,0-6.807,2.187,2.829,2.829,0,0,0-1.283,1.289,4.27,4.27,0,0,0-.1,1.594c.072,4.575-5.03,8.037-4.87,12.613.064,1.812.975,3.5,1.142,5.314.279,3.018-1.507,5.795-3.218,8.3a6.908,6.908,0,0,0,4.849-1.607,36.756,36.756,0,0,1,.678,18.527h2.447a1.86,1.86,0,0,1,.715.09,1.747,1.747,0,0,1,.566.42c2.288,2.28,3.821,5.643,2.947,8.752l5.208-1.953a15.468,15.468,0,0,0,3.595-1.714,5.192,5.192,0,0,0,2.221-3.2c.141-.8.1-1.748.752-2.211a4.091,4.091,0,0,1,1.026-.38c1.429-.5,2.062-2.157,2.354-3.645a20.988,20.988,0,0,0,.34-5.55c-.231-3.109-1.15-6.265-.393-9.3.428-1.7,1.379-3.289,1.456-5.048.125-2.9-2.142-5.4-2.479-8.279-.237-2.009.489-4.039.252-6.05a6.5,6.5,0,0,0-3.419-4.934c-.64-.329-1.328-.55-1.961-.911-1.443-.84-2.365-2.346-3.675-3.382s-3.491-1.427-4.477-.08Z" transform="translate(-408.309 -233.953)"/>
            <g id="Group_1215" data-name="Group 1215" transform="translate(7.891 7.831)" opacity="0.1">
              <path id="Path_2266" data-name="Path 2266" d="M442.276,252.81a2.945,2.945,0,0,0-.016.308C442.268,253.017,442.273,252.914,442.276,252.81Z" transform="translate(-435.336 -252.81)"/>
              <path id="Path_2267" data-name="Path 2267" d="M514.937,281.165a28.265,28.265,0,0,0,.292-4.225A30.59,30.59,0,0,0,514.937,281.165Z" transform="translate(-488.686 -270.529)"/>
              <path id="Path_2268" data-name="Path 2268" d="M425.144,305.833c-.154-1.647-.922-3.188-1.1-4.833a6.06,6.06,0,0,0-.04.909c.064,1.793.954,3.47,1.135,5.255A7.173,7.173,0,0,0,425.144,305.833Z" transform="translate(-421.927 -288.196)"/>
              <path id="Path_2269" data-name="Path 2269" d="M518.2,331.109a11.393,11.393,0,0,0-.266,3.3,10,10,0,0,1,.266-1.916c.428-1.7,1.379-3.289,1.456-5.048a5.481,5.481,0,0,0-.043-.935C519.4,328.091,518.578,329.563,518.2,331.109Z" transform="translate(-490.885 -306.928)"/>
              <path id="Path_2270" data-name="Path 2270" d="M421.049,344.36a6.908,6.908,0,0,1-3.922,1.594c-.3.473-.616.935-.927,1.392a6.908,6.908,0,0,0,4.849-1.607,36.669,36.669,0,0,1,1.546,9.95A36.75,36.75,0,0,0,421.049,344.36Z" transform="translate(-416.2 -320.035)"/>
              <path id="Path_2271" data-name="Path 2271" d="M477.305,390.442c-.292,1.488-.925,3.141-2.354,3.643a3.986,3.986,0,0,0-1.026.383c-.656.462-.611,1.419-.752,2.211a5.125,5.125,0,0,1-2.221,3.188,15.975,15.975,0,0,1-3.595,1.716l-4.969,1.86a6.858,6.858,0,0,1-.239,1.475l5.208-1.953a15.471,15.471,0,0,0,3.595-1.714,5.191,5.191,0,0,0,2.221-3.2c.141-.8.1-1.748.752-2.211a4.092,4.092,0,0,1,1.026-.38c1.429-.5,2.062-2.157,2.354-3.645a20.838,20.838,0,0,0,.375-4.7A20.809,20.809,0,0,1,477.305,390.442Z" transform="translate(-449.941 -351.427)"/>
              <path id="Path_2272" data-name="Path 2272" d="M440.787,414.572a1.756,1.756,0,0,0-.566-.422,1.9,1.9,0,0,0-.715-.09h-2.171c-.085.462-.175.925-.266,1.384h2.447a1.86,1.86,0,0,1,.715.09,1.748,1.748,0,0,1,.566.42,10.526,10.526,0,0,1,3.159,6.223A9.912,9.912,0,0,0,440.787,414.572Z" transform="translate(-431.525 -371.213)"/>
            </g>
            <path id="Path_2273" data-name="Path 2273" d="M405.37,449.062s1.977-.829,2.418,0S405.37,449.062,405.37,449.062Z" transform="translate(-400.356 -388.817)" opacity="0.1"/>
            <path id="Path_2274" data-name="Path 2274" d="M408,454.412s1.977-.829,2.421,0S408,454.412,408,454.412Z" transform="translate(-402.288 -392.746)" opacity="0.1"/>
          </g>
          <path id="Path_2278" data-name="Path 2278" d="M899.707,347.915a3.8,3.8,0,1,0,3.8,3.8A3.8,3.8,0,0,0,899.707,347.915ZM888.59,318.08v3.8h3.8l6.844,13.864-2.862,4.658a3.656,3.656,0,0,0-.476,1.807c0,2.545,1.74,3.8,4.1,3.8H922.23v-3.656H900.464a.449.449,0,0,1-.476-.476,2.4,2.4,0,0,1,.2-.473l1.9-3h14.164a3.72,3.72,0,0,0,3.327-2l6.847-11.773a2.209,2.209,0,0,0,.191-.951,1.828,1.828,0,0,0-1.9-1.807h-28.14l-1.807-3.8Zm29.835,29.835a3.8,3.8,0,1,0,3.8,3.8A3.8,3.8,0,0,0,918.425,347.915Z" transform="translate(-698.899 -292.818)" fill="#238ee9"/>
          <path id="Path_2279" data-name="Path 2279" d="M916.438,327.4H913.25V324.21h-2.391V327.4H907.67v2.391h3.188v3.188h2.391V329.79h3.188Z" transform="translate(-701.776 -291.617)" fill="#fff"/>
        </g>
        <g id="Group_1222" data-name="Group 1222" transform="translate(174.951 82.869)">
          <path id="Path_2282" data-name="Path 2282" d="M643.457,88.425l9.126-9.1-9.126-9.1,2.782-2.773,11.909,11.872L646.239,91.2l-2.782-2.773Z" transform="translate(-597.677 -67.362)" fill="#238ee9"/>
          <path id="Path_2283" data-name="Path 2283" d="M537.6,363.585h3.71v-3.71H537.6Zm18.624-3.71h-3.71v3.71h3.71Zm-11.167,3.71h3.71v-3.71h-3.71Z" transform="translate(-517.877 -350.971)" fill="#238ee9"/>
          <path id="Path_2284" data-name="Path 2284" d="M347.476,87.8l-9.136-9.1,9.126-9.1-2.782-2.773L332.785,78.7l11.909,11.872Z" transform="translate(-332.785 -66.826)" fill="#238ee9"/>
        </g>
      </g>
      <g id="Group_1224" data-name="Group 1224" transform="translate(-1713.811 -1692.208)">
        <rect id="Rectangle_301" data-name="Rectangle 301" width="14.041" height="14.041" transform="matrix(0.978, -0.21, 0.21, 0.978, 12.579, 9.599)" fill="#037ee6"/>
        <path id="Path_1282" data-name="Path 1282" d="M236.292,276.51l3.582,16.67-16.67,3.582-3.582-16.67Zm2.7,16.1-3.27-15.22-15.22,3.27,3.27,15.22Z" transform="translate(-219.623 -276.51)" fill="#037ee6"/>
      </g>
      <g id="Group_1225" data-name="Group 1225" transform="translate(-1785.297 -1871.566)">
        <rect id="Rectangle_301-2" data-name="Rectangle 301" width="10.17" height="10.17" transform="matrix(0.978, -0.21, 0.21, 0.978, 9.111, 6.953)" fill="#faf076"/>
        <path id="Path_1282-2" data-name="Path 1282" d="M231.7,276.51l2.594,12.074-12.074,2.594L219.623,279.1Zm1.957,11.662-2.369-11.024-11.024,2.369,2.369,11.024Z" transform="translate(-219.623 -276.51)" fill="#faf076"/>
      </g>
    </g>
  </g>
</svg>
