<svg xmlns="http://www.w3.org/2000/svg" width="302" height="233" viewBox="0 0 302 233">
  <g id="Group_1268" data-name="Group 1268" transform="translate(2206 842)">
    <rect id="Rectangle_687" data-name="Rectangle 687" width="302" height="233" transform="translate(-2206 -842)" fill="none"/>
    <g id="Group_1267" data-name="Group 1267" transform="translate(-590.105 1090.482)">
      <g id="Group_1232" data-name="Group 1232" transform="translate(-1580.472 -1901.749)">
        <g id="Group_1228" data-name="Group 1228" transform="translate(0)">
          <path id="Path_765" data-name="Path 765" d="M473.159,269.063H381.345v-1.892H339.713v1.892H247.521a6.211,6.211,0,0,0-6.211,6.211h0V400.995a6.211,6.211,0,0,0,6.211,6.211H473.159a6.211,6.211,0,0,0,6.211-6.211V275.274a6.211,6.211,0,0,0-6.21-6.21Z" transform="translate(-231.849 -242.161)" fill="#060606"/>
          <rect id="Rectangle_125" data-name="Rectangle 125" width="221.406" height="124.896" transform="translate(17.788 37.877)" fill="#e6e6e6"/>
          <rect id="Rectangle_130" data-name="Rectangle 130" width="202.703" height="107.957" transform="translate(27.178 44.482)" fill="#fff"/>
          <circle id="Ellipse_120" data-name="Ellipse 120" cx="2.271" cy="2.271" r="2.271" transform="translate(126.031 29.93)" fill="#6c63ff"/>
          <path id="Path_766" data-name="Path 766" d="M468.238,647.691H446.63v-1.557a.309.309,0,0,0-.309-.309h-7.408a.309.309,0,0,0-.309.309h0v1.557h-4.63v-1.557a.309.309,0,0,0-.309-.309h-7.408a.309.309,0,0,0-.309.309h0v1.557h-4.63v-1.557a.309.309,0,0,0-.309-.309H413.6a.309.309,0,0,0-.309.309h0v1.557h-4.63v-1.557a.309.309,0,0,0-.309-.309h-7.408a.309.309,0,0,0-.309.309h0v1.557h-4.63v-1.557a.309.309,0,0,0-.309-.309h-7.408a.309.309,0,0,0-.309.309h0v1.557h-4.63v-1.557a.309.309,0,0,0-.309-.309h-7.407a.309.309,0,0,0-.309.309h0v1.557h-4.632v-1.557a.309.309,0,0,0-.309-.309H312.352a.309.309,0,0,0-.309.309h0v1.557h-4.63v-1.557a.309.309,0,0,0-.309-.309H299.7a.309.309,0,0,0-.309.309h0v1.557h-4.63v-1.557a.309.309,0,0,0-.309-.309h-7.408a.309.309,0,0,0-.309.309h0v1.557H282.1v-1.557a.309.309,0,0,0-.309-.309h-7.408a.309.309,0,0,0-.309.309h0v1.557h-4.629v-1.557a.309.309,0,0,0-.309-.309h-7.409a.309.309,0,0,0-.309.309h0v1.557h-4.63v-1.557a.309.309,0,0,0-.309-.309h-7.408a.309.309,0,0,0-.309.309h0v1.557h-4.63v-1.557a.309.309,0,0,0-.309-.309h-7.41a.309.309,0,0,0-.309.309h0v1.557h-14.2A7.408,7.408,0,0,0,214.5,655.1v3.35a7.408,7.408,0,0,0,7.408,7.408H468.238a7.408,7.408,0,0,0,7.408-7.408V655.1a7.408,7.408,0,0,0-7.408-7.409Z" transform="translate(-214.5 -487.188)" fill="#060606"/>
          <rect id="Rectangle_126" data-name="Rectangle 126" width="89.637" height="94.224" transform="translate(83.711 52.054)" fill="#e6e6e6"/>
          <circle id="Ellipse_127" data-name="Ellipse 127" cx="11.913" cy="11.913" r="11.913" transform="translate(127.432 54.902)" fill="#fdc2cc"/>
          <path id="Path_803" data-name="Path 803" d="M531.686,494.162l7.693-48.431a18.362,18.362,0,0,1,23.284-14.745h0a18.307,18.307,0,0,1,12.9,20.983l-8.046,43.251Z" transform="translate(-419.751 -347.69)" fill="#238ee9"/>
          <path id="Path_804" data-name="Path 804" d="M604.7,594.047a4.877,4.877,0,0,0,.847-7.431l7.953-15.4-8.956.956L598.36,586.65a4.905,4.905,0,0,0,6.335,7.4Z" transform="translate(-462.061 -438.909)" fill="#fdc2cc"/>
          <path id="Path_805" data-name="Path 805" d="M614.482,506.677a2.186,2.186,0,0,1-1.177-.558l-3.043-2.812a2.19,2.19,0,0,1-.529-2.451l6.081-14.414-.863-28.481a7.031,7.031,0,0,1,13.934,1.9h0l1.475,17.9a22.493,22.493,0,0,1-4.335,15.228l-9.483,12.82a2.185,2.185,0,0,1-1.55.875A2.163,2.163,0,0,1,614.482,506.677Z" transform="translate(-470.145 -361.686)" fill="#238ee9"/>
          <path id="Path_806" data-name="Path 806" d="M414.8,356.576a4.877,4.877,0,0,0,6.512,3.678L432.4,373.581l2.611-8.62-10.923-11.335a4.905,4.905,0,0,0-9.281,2.95Z" transform="translate(-344.061 -296.252)" fill="#fdc2cc"/>
          <path id="Path_807" data-name="Path 807" d="M438.988,377.826a2.186,2.186,0,0,1,.973-.866l3.776-1.706a2.19,2.19,0,0,1,2.464.468l10.9,11.22,26.563,10.31a7.031,7.031,0,0,1-7.183,12.09h0l-17.062-5.622a22.493,22.493,0,0,1-12.333-9.93l-8.108-13.731a2.185,2.185,0,0,1-.2-1.768,2.163,2.163,0,0,1,.21-.464Z" transform="translate(-359.565 -311.978)" fill="#238ee9"/>
          <path id="Path_808" data-name="Path 808" d="M619.464,502.685l-.485,15.521-8.935,15.528,7.461-17.3Z" transform="translate(-470.457 -394.562)" opacity="0.1"/>
          <path id="Path_696" data-name="Path 696" d="M576.877,348.284c1.229,1.454,3.308,1.864,5.227,2.033a49.2,49.2,0,0,0,13.367-1.091c.272,2.634-.469,5.473,1.082,7.64a35.464,35.464,0,0,0,1.26-8.04,7.7,7.7,0,0,0-.445-3.444,3.167,3.167,0,0,0-2.7-1.989,6.762,6.762,0,0,1,3.016-1.289l-3.769-1.894.968-.994-6.824-.418,1.976-1.256a42.861,42.861,0,0,0-8.978-.282,7.705,7.705,0,0,0-3.971,1.1,2.868,2.868,0,0,0-1.078,3.59,5.212,5.212,0,0,0-3.972,3.152,8.413,8.413,0,0,0-.3,4.045,28.662,28.662,0,0,0,1.5,6.359" transform="translate(-445.6 -287.44)" fill="#2f2e41"/>
          <path id="Path_138" data-name="Path 138" d="M515.725,227.3,407.174,252.363a2.066,2.066,0,0,1-2.474-1.546l-6.217-26.927a2.066,2.066,0,0,1,1.546-2.474l108.551-25.061a2.066,2.066,0,0,1,2.474,1.546l6.217,26.927A2.065,2.065,0,0,1,515.725,227.3Z" transform="translate(-333.521 -196.301)" fill="#fff"/>
          <path id="Path_138-2" data-name="Path 138" d="M515.725,227.3,407.174,252.363a2.066,2.066,0,0,1-2.474-1.546l-6.217-26.927a2.066,2.066,0,0,1,1.546-2.474l108.551-25.061a2.066,2.066,0,0,1,2.474,1.546l6.217,26.927A2.065,2.065,0,0,1,515.725,227.3Zm-115.51-5.082a1.239,1.239,0,0,0-.928,1.485l6.217,26.927a1.239,1.239,0,0,0,1.485.928L515.54,226.5a1.239,1.239,0,0,0,.928-1.485l-6.217-26.927a1.239,1.239,0,0,0-1.485-.928Z" transform="translate(-333.521 -196.301)" fill="#e6e6e6"/>
          <path id="Path_139" data-name="Path 139" d="M508.226,242.206a1.4,1.4,0,1,0,.625,2.731h0l64.338-14.854a1.4,1.4,0,0,0-.63-2.73Z" transform="translate(-403.866 -216.371)" fill="#e6e6e6"/>
          <path id="Path_140" data-name="Path 140" d="M513.582,280.926a1.4,1.4,0,1,0,.625,2.731h0l27.685-6.392a1.4,1.4,0,0,0-.625-2.731h0Z" transform="translate(-407.332 -246.902)" fill="#e6e6e6"/>
          <g id="Group_45" data-name="Group 45" transform="translate(78.367 27.176)">
            <circle id="Ellipse_18" data-name="Ellipse 18" cx="8.404" cy="8.404" r="8.404" fill="#238ee9"/>
            <path id="Path_395" data-name="Path 395" d="M450.565,291.55a1.3,1.3,0,0,1-.822-.078l-.016-.007-3.382-1.535a1.311,1.311,0,1,1,1.086-2.388l2.191,1,3.074-6.754a1.31,1.31,0,0,1,1.735-.65h0l-.018.044.02-.044a1.312,1.312,0,0,1,.649,1.736l-3.615,7.946a1.311,1.311,0,0,1-.9.732Z" transform="translate(-442.397 -278.298)" fill="#fff"/>
          </g>
        </g>
        <g id="Group_1229" data-name="Group 1229" transform="translate(28.762 89.533)">
          <path id="Path_2288" data-name="Path 2288" d="M213.789,400.609a17.554,17.554,0,1,1,17.555-17.555A17.554,17.554,0,0,1,213.789,400.609Zm0-34.273a16.719,16.719,0,1,0,16.719,16.719A16.719,16.719,0,0,0,213.789,366.336Z" transform="translate(-196.235 -365.5)" fill="#238ee9"/>
          <path id="Path_2321" data-name="Path 2321" d="M233.729,391.687a11.476,11.476,0,1,0-13.269,11.337v-8.019h-2.914v-3.318h2.914v-2.529c0-2.876,1.714-4.465,4.335-4.465a17.641,17.641,0,0,1,2.569.224v2.824h-1.448a1.659,1.659,0,0,0-1.87,1.793v2.153h3.182l-.508,3.318h-2.674v8.019A11.479,11.479,0,0,0,233.729,391.687Z" transform="translate(-204.699 -374.064)" fill="#238ee9" fill-rule="evenodd"/>
        </g>
        <g id="Group_1230" data-name="Group 1230" transform="translate(193.649 51.624)">
          <path id="Path_2289" data-name="Path 2289" d="M379.78,257.591a13.545,13.545,0,1,1,13.545-13.545,13.545,13.545,0,0,1-13.545,13.545Zm0-26.446a12.9,12.9,0,1,0,12.9,12.9A12.9,12.9,0,0,0,379.78,231.145Z" transform="translate(-366.235 -230.5)" fill="#faf076"/>
          <path id="Path_2293" data-name="Path 2293" d="M401.748,256.256l1.613-.323a15.118,15.118,0,0,1-1.613,1.613h0a6.489,6.489,0,0,0,0,.968c-3.1,13.287-14.513,7.418-14.513,7.418,4.16.1,4.515-1.613,4.515-1.613-2.419-.355-2.9-1.935-2.9-1.935a1,1,0,0,0,1.29-.323,2.929,2.929,0,0,1-2.258-3.225,3.354,3.354,0,0,0,1.58.613c-.29-.355-2.741-3.29-1.258-4.805a8.044,8.044,0,0,0,6.547,3.515l.322-.064a2.531,2.531,0,0,1-.064-.71A3.386,3.386,0,0,1,398.394,254c2.258,0,2.741,1.29,2.741,1.29l1.613-.968C402.715,254.32,402.554,255.933,401.748,256.256Z" transform="translate(-380.462 -246.42)" fill="#faf076"/>
        </g>
        <g id="Group_1231" data-name="Group 1231" transform="translate(179.711 115.344)">
          <path id="Path_2290" data-name="Path 2290" d="M563.388,196.806a15.153,15.153,0,1,1,15.153-15.153A15.153,15.153,0,0,1,563.388,196.806Zm0-29.584a14.431,14.431,0,1,0,14.431,14.431A14.431,14.431,0,0,0,563.388,167.222Z" transform="translate(-548.235 -166.5)" fill="#238ee9"/>
          <path id="Path_2305" data-name="Path 2305" d="M578.729,185.023a3.821,3.821,0,0,1,3.809,3.809v7.618a3.821,3.821,0,0,1-3.809,3.809h-7.618a3.821,3.821,0,0,1-3.809-3.809v-7.618a3.821,3.821,0,0,1,3.809-3.809h7.618m0-1.523h-7.618a5.348,5.348,0,0,0-5.333,5.333v7.618a5.348,5.348,0,0,0,5.333,5.333h7.618a5.348,5.348,0,0,0,5.333-5.333v-7.618a5.348,5.348,0,0,0-5.333-5.333Z" transform="translate(-559.449 -177.367)" fill="#238ee9"/>
          <path id="Path_2306" data-name="Path 2306" d="M602.825,194.24a1.14,1.14,0,1,1,1.143-1.142,1.14,1.14,0,0,1-1.143,1.142Z" transform="translate(-582.403 -182.774)" fill="#238ee9"/>
          <path id="Path_2307" data-name="Path 2307" d="M583.018,197.693a3.047,3.047,0,1,1-3.047,3.047,3.047,3.047,0,0,1,3.047-3.047m0-1.523a4.571,4.571,0,1,0,4.571,4.571,4.571,4.571,0,0,0-4.571-4.571Z" transform="translate(-567.547 -185.465)" fill="#238ee9"/>
        </g>
      </g>
      <g id="Group_1233" data-name="Group 1233" transform="translate(-1609.895 -1824.144)">
        <rect id="Rectangle_301" data-name="Rectangle 301" width="14.121" height="14.121" transform="matrix(0.978, -0.21, 0.21, 0.978, 12.651, 9.654)" fill="#037ee6"/>
        <path id="Path_1282" data-name="Path 1282" d="M236.387,276.51l3.6,16.764-16.764,3.6-3.6-16.764ZM239.1,292.7,235.815,277.4l-15.306,3.289,3.289,15.306Z" transform="translate(-219.623 -276.51)" fill="#037ee6"/>
      </g>
      <g id="Group_1234" data-name="Group 1234" transform="translate(-1367.303 -1908.482)">
        <rect id="Rectangle_301-2" data-name="Rectangle 301" width="10.228" height="10.228" transform="matrix(0.978, -0.21, 0.21, 0.978, 9.163, 6.992)" fill="#faf076"/>
        <path id="Path_1282-2" data-name="Path 1282" d="M231.765,276.51l2.609,12.142-12.142,2.609-2.609-12.142Zm1.968,11.728-2.382-11.086-11.086,2.382,2.382,11.086Z" transform="translate(-219.623 -276.51)" fill="#faf076"/>
      </g>
    </g>
  </g>
</svg>
