<svg xmlns="http://www.w3.org/2000/svg" width="302" height="233" viewBox="0 0 302 233">
  <g id="Group_1257" data-name="Group 1257" transform="translate(2647 910)">
    <rect id="Rectangle_680" data-name="Rectangle 680" width="302" height="233" transform="translate(-2647 -910)" fill="none"/>
    <g id="Group_770" data-name="Group 770" transform="translate(-3134.718 -1944.433)">
      <g id="Group_687" data-name="Group 687" transform="translate(601.009 1045.851)">
        <path id="Path_1347" data-name="Path 1347" d="M743.6,205.991v22.761a.8.8,0,0,1-.794.794h-.565V348.115a12.372,12.372,0,0,1-12.371,12.372H655.786a12.369,12.369,0,0,1-12.368-12.37V233.7h-.409a.56.56,0,0,1-.561-.558V220.193a.561.561,0,0,1,.562-.561h.409v-4.879h-.412a.588.588,0,0,1-.586-.589V201.386a.587.587,0,0,1,.586-.586h.412V194.14H643a.519.519,0,0,1-.52-.52v-6.972a.522.522,0,0,1,.52-.523h.419V172.006a12.368,12.368,0,0,1,12.368-12.368h74.088a12.372,12.372,0,0,1,12.372,12.368V205.2h.565A.8.8,0,0,1,743.6,205.991Z" transform="translate(-642.42 -159.638)" fill="#037ee6"/>
        <rect id="Rectangle_313" data-name="Rectangle 313" width="13.8" height="2.802" rx="1.401" transform="translate(41.059 6.344)" fill="#e6e8ec"/>
        <circle id="Ellipse_83" data-name="Ellipse 83" cx="1.589" cy="1.589" r="1.589" transform="translate(56.947 6.156)" fill="#e6e8ec"/>
        <path id="Path_1348" data-name="Path 1348" d="M750.053,187.587V362.276a7.849,7.849,0,0,1-7.849,7.846h-70.92a7.836,7.836,0,0,1-7.849-7.846V187.587a7.849,7.849,0,0,1,7.849-7.849H681.9V181.1a6.463,6.463,0,0,0,6.463,6.463H724.43a6.463,6.463,0,0,0,6.463-6.463v-1.362H742.2A7.847,7.847,0,0,1,750.053,187.587Z" transform="translate(-656.152 -172.773)" fill="#fff"/>
        <rect id="Rectangle_314" data-name="Rectangle 314" width="72.081" height="9.357" transform="translate(14.696 121.968)" fill="#faf076"/>
        <rect id="Rectangle_315" data-name="Rectangle 315" width="72.081" height="9.357" transform="translate(14.696 138.602)" fill="#faf076"/>
        <rect id="Rectangle_316" data-name="Rectangle 316" width="72.081" height="9.357" transform="translate(14.696 155.236)" fill="#faf076"/>
        <circle id="Ellipse_84" data-name="Ellipse 84" cx="6.931" cy="6.931" r="6.931" transform="translate(71.875 24.59)" fill="#6c63ff"/>
        <rect id="Rectangle_317" data-name="Rectangle 317" width="72.081" height="47.823" transform="translate(14.551 54.739)" fill="#e6e6e6" opacity="0.39"/>
        <path id="Path_1349" data-name="Path 1349" d="M766.037,365.818c2.1,7.78,9.313,12.6,9.313,12.6s3.8-7.8,1.692-15.575-9.313-12.6-9.313-12.6S763.932,358.039,766.037,365.818Z" transform="translate(-722.783 -284.19)" fill="#faf076"/>
        <path id="Path_1350" data-name="Path 1350" d="M748.944,378.871c5.775,5.622,6.48,14.264,6.48,14.264s-8.658-.473-14.433-6.095-6.48-14.264-6.48-14.264S743.169,373.249,748.944,378.871Z" transform="translate(-702.597 -298.915)" fill="#037ee6"/>
        <path id="Path_1351" data-name="Path 1351" d="M800.533,365.818c-2.1,7.78-9.313,12.6-9.313,12.6s-3.8-7.8-1.692-15.575,9.313-12.6,9.313-12.6S802.638,358.039,800.533,365.818Z" transform="translate(-738.134 -284.19)" fill="#faf076"/>
        <path id="Path_1352" data-name="Path 1352" d="M801.34,378.871c-5.775,5.622-6.48,14.264-6.48,14.264s8.658-.473,14.433-6.095,6.48-14.264,6.48-14.264S807.115,373.249,801.34,378.871Z" transform="translate(-742.033 -298.915)" fill="#037ee6"/>
      </g>
      <g id="Group_688" data-name="Group 688" transform="translate(540.076 1150.388)">
        <path id="Path_1326" data-name="Path 1326" d="M304.558,537.185s4.171,6.615,2.681,8.406,11.175,1.836,11.175,1.836-1.9-9.622-1.342-11.837Z" transform="translate(-288.174 -508.564)" fill="#ffb8b8"/>
        <circle id="Ellipse_80" data-name="Ellipse 80" cx="13.078" cy="13.078" r="13.078" transform="translate(9.972 4.863)"/>
        <path id="Path_1327" data-name="Path 1327" d="M245.51,536.052V543.8l7.752-1.615-.646-5.491Z" transform="translate(-191.702 -447.228)" fill="#ffb8b8"/>
        <path id="Path_1328" data-name="Path 1328" d="M466.115,699.038l21.643,3.553-5.491,8.076s-15.182-5.168-19.059-5.168S466.115,699.038,466.115,699.038Z" transform="translate(-384.85 -608.921)" fill="#ffb8b8"/>
        <path id="Path_1329" data-name="Path 1329" d="M339.275,630.551s16.151-18.736,21.32-17.766,7.43,6.784,7.43,6.784l2.907,28.749s-10.337.969-10.337,0-1.938-21.643-1.938-21.643-15.182,33.595-23.258,11.306Z" transform="translate(-307.11 -555.939)" fill="#faf076"/>
        <path id="Path_1330" data-name="Path 1330" d="M277.656,673.158s.323,16.923,10.014,17.892,20.351-7.232,20.351-7.232l17.443-8.357s20.674,10.941,26.811,8.034c0,0,6.461-6.784,2.261-8.722s-.323,0-.323,0L329.34,661.852s-4.845-1.292-13.244,2.261-19.7,5.168-19.7,5.168Z" transform="translate(-271.656 -585.948)" fill="#faf076"/>
        <circle id="Ellipse_81" data-name="Ellipse 81" cx="9.691" cy="9.691" r="9.691" transform="translate(12.46 12.591)" fill="#ffb8b8"/>
        <path id="Path_1331" data-name="Path 1331" d="M303.218,566.859l-.646,13.567s.323,17.766-2.584,19.058c-1.47.653-4.422,1.964-7.152,3.4a26.581,26.581,0,0,0-5.042,3.188,3.614,3.614,0,0,0-.727.843c-1.292,2.261-9.691,1.938-11.629.323s-.646,1.938-2.261,2.584c-1.563.627-3.731-4.5-2.4-12.146.042-.255.09-.514.142-.775,1.483-7.414-.846-25.17-.488-32.031a12.078,12.078,0,0,1,.165-1.563c.969-5.168,13.335-15.686,15.647-11.206,2.849,5.53,9.394.478,10.518-2.038,6.46-.323,8.722,7.43,8.722,7.43Z" transform="translate(-267.177 -517.444)" fill="#037ee6"/>
        <path id="Path_1332" data-name="Path 1332" d="M406.333,708.243s-5.168,1.938-6.784,1.615a2.794,2.794,0,0,0-3.23,2.907c0,1.938-1.938,6.461.969,6.784s14.859-.323,17.443.646c0,0,11.629.323,10.66-4.522s-5.814-4.522-5.814-4.522S406.333,710.5,406.333,708.243Z" transform="translate(-344.127 -614.573)"/>
        <path id="Path_1333" data-name="Path 1333" d="M510.731,707.671s.646-1.938,1.615-1.938,8.722,1.292,9.691.969,12.275-.969,10.337,4.522-8.4,6.138-8.4,6.138-11.629-1.292-13.244-.969-7.43,0-6.461-1.615S511.377,710.255,510.731,707.671Z" transform="translate(-410.731 -613.032)"/>
        <path id="Path_1334" data-name="Path 1334" d="M431.835,589.995l1.772,7.31a.456.456,0,0,1-.009.247l-8.039,25.122a.457.457,0,0,1-.889-.088l-1.112-9.786a.457.457,0,0,1,.02-.193l7.379-22.646a.457.457,0,0,1,.878.034Z" transform="translate(-361.238 -541.754)"/>
        <path id="Path_1335" data-name="Path 1335" d="M276.037,432.512l1.636,6.272-7.09,22.907-1.636-7.09Z" transform="translate(-206.093 -383.655)" fill="#fff"/>
        <path id="Path_1336" data-name="Path 1336" d="M350.687,660.506c.273.818,28.361-.273,28.634-.545a5.919,5.919,0,0,0,.6-1.091c.256-.545.491-1.091.491-1.091l-1.091-8.83-27.816-.987s-.7,7.483-.837,10.908A8.185,8.185,0,0,0,350.687,660.506Z" transform="translate(-316.465 -577.561)"/>
        <path id="Path_1337" data-name="Path 1337" d="M241.111,493.975l.545,7.636H229.385v-7.636Z" transform="translate(-181.802 -421.392)" fill="#037ee6" opacity="0.15"/>
        <path id="Path_1338" data-name="Path 1338" d="M207.509,500.311l.073-.015-.346,3.287h-6.818v-3.272Z" transform="translate(-164.017 -425.273)" fill="#037ee6" opacity="0.1"/>
        <path id="Path_1339" data-name="Path 1339" d="M350.687,677.857c.273.818,28.361-.273,28.634-.545a5.918,5.918,0,0,0,.6-1.091H350.668a8.184,8.184,0,0,0,.019,1.636Z" transform="translate(-316.466 -594.912)" opacity="0.1"/>
        <circle id="Ellipse_82" data-name="Ellipse 82" cx="3.645" cy="3.645" r="3.645" transform="translate(21.571)"/>
        <path id="Path_1340" data-name="Path 1340" d="M298.752,485.3a21.46,21.46,0,0,1-12.382,8.512c-8.659,2.319-.071,15.33-.071,15.33s-3.123-4.732,1.381-9.742S299.434,490.958,298.752,485.3Z" transform="translate(-274.633 -477.683)"/>
        <path id="Path_1341" data-name="Path 1341" d="M292.882,624.994a32.439,32.439,0,0,0-1.893,3.708c-.107.43-1.289.181-3.15-.52a169.045,169.045,0,0,1-16.232-7.879,5.093,5.093,0,0,1-.788-.517c.042-.255.09-.514.142-.775,1.483-7.413-.846-25.17-.488-32.031l2.749-.917,5.491,5.168V613.2s14.213,7.753,15.182,8.4C294.391,621.925,293.709,623.427,292.882,624.994Z" transform="translate(-267.223 -539.554)" fill="#037ee6" opacity="0.1"/>
        <path id="Path_1342" data-name="Path 1342" d="M353.985,641.1l8.722,4.522s5.168-5.492,8.4-1.292-9.368,5.492-9.368,5.492-10.983-2.584-11.306-6.138S353.985,641.1,353.985,641.1Z" transform="translate(-316.329 -573.275)" fill="#ffb8b8"/>
        <path id="Path_1343" data-name="Path 1343" d="M318.748,666.22l5.168,1.292s5.815-7.107,11.952-4.523-7.753,7.753-7.753,7.753-7.43,3.876-10.337.646S318.748,666.22,318.748,666.22Z" transform="translate(-295.628 -586.44)" fill="#ffb8b8"/>
        <path id="Path_1344" data-name="Path 1344" d="M343.592,561.794c.323.323,3.876,2.907,3.876,2.907s.969,12.275-.323,14.859-2.261,2.584-1.292,3.876,2.261.323.969,2.584-2.584,1.938-1.615,2.907.646,1.292.646,1.292l3.876,3.23s-2.378,3.788-5.388,3.509-5.594-14.815-5.594-14.815Z" transform="translate(-309.166 -524.654)" fill="#037ee6"/>
        <path id="Path_1345" data-name="Path 1345" d="M268.113,581.878l-2.907.969s-7.753,28.426,1.292,33.272,19.059,9.691,19.382,8.4,3.876-6.46,2.907-7.106-15.182-8.4-15.182-8.4V587.046Z" transform="translate(-262.113 -536.985)" fill="#037ee6"/>
        <path id="Path_1346" data-name="Path 1346" d="M131.926,452.785l-.646,15.505,17.12,8.076-15.828-8.076Z" transform="translate(-121.566 -396.102)" fill="#037ee6" opacity="0.1"/>
      </g>
      <g id="Group_689" data-name="Group 689" transform="translate(556.341 1094.057)">
        <rect id="Rectangle_301" data-name="Rectangle 301" width="10.495" height="10.495" transform="matrix(0.978, -0.21, 0.21, 0.978, 9.402, 7.175)"/>
        <path id="Path_1282" data-name="Path 1282" d="M232.083,276.51l2.677,12.46-12.46,2.677-2.677-12.46Zm2.019,12.034-2.444-11.376-11.376,2.444,2.444,11.376Z" transform="translate(-219.623 -276.51)"/>
      </g>
      <g id="Group_690" data-name="Group 690" transform="translate(715.492 1076.621)">
        <rect id="Rectangle_301-2" data-name="Rectangle 301" width="10.495" height="10.495" transform="matrix(0.978, -0.21, 0.21, 0.978, 9.402, 7.175)" fill="#faf076"/>
        <path id="Path_1282-2" data-name="Path 1282" d="M232.083,276.51l2.677,12.46-12.46,2.677-2.677-12.46Zm2.019,12.034-2.444-11.376-11.376,2.444,2.444,11.376Z" transform="translate(-219.623 -276.51)" fill="#faf076"/>
      </g>
    </g>
  </g>
</svg>
