<svg xmlns="http://www.w3.org/2000/svg" width="302" height="233" viewBox="0 0 302 233">
  <g id="Group_1256" data-name="Group 1256" transform="translate(2632 765)">
    <rect id="Rectangle_376" data-name="Rectangle 376" width="302" height="233" transform="translate(-2632 -765)" fill="none"/>
    <g id="Group_769" data-name="Group 769" transform="translate(-2671.48 -1773.77)">
      <rect id="Rectangle_300" data-name="Rectangle 300" width="10.87" height="10.87" transform="translate(103.881 1062.428) rotate(-86.19)" fill="#faf076"/>
      <path id="Path_1281" data-name="Path 1281" d="M123.477,362.131l13.171.877-.877,13.17L122.6,375.3Zm12.56,1.412-12.025-.8-.8,12.025,12.025.8Z" transform="translate(-25.872 695.209)" fill="#faf076"/>
      <g id="Group_683" data-name="Group 683" transform="translate(229.32 1039.281)">
        <rect id="Rectangle_301" data-name="Rectangle 301" width="10.87" height="10.87" transform="matrix(0.978, -0.21, 0.21, 0.978, 9.739, 7.431)"/>
        <path id="Path_1282" data-name="Path 1282" d="M232.528,276.51l2.773,12.905L222.4,292.188l-2.773-12.905Zm2.091,12.465-2.532-11.783L220.3,279.723l2.532,11.783Z" transform="translate(-219.623 -276.51)"/>
      </g>
      <g id="Group_682" data-name="Group 682" transform="translate(312.998 1104.84)">
        <rect id="Rectangle_302" data-name="Rectangle 302" width="10.87" height="10.87" transform="matrix(0.73, -0.684, 0.684, 0.73, 2.722, 18.177)" fill="#037ee6"/>
        <path id="Path_1283" data-name="Path 1283" d="M235.382,376.479l-9.634,9.023-9.024-9.634,9.634-9.023Zm-9.607,8.212,8.8-8.239-8.239-8.8-8.8,8.239Z" transform="translate(-216.724 -366.845)" fill="#037ee6"/>
      </g>
      <path id="Path_1284" data-name="Path 1284" d="M603.58,231.659H402.1a5.546,5.546,0,0,0-5.546,5.546v112.26a5.546,5.546,0,0,0,5.546,5.546H603.58a5.546,5.546,0,0,0,5.546-5.546V237.2a5.546,5.546,0,0,0-5.545-5.546Z" transform="translate(-311.969 839.461)" fill="#037ee6"/>
      <rect id="Rectangle_303" data-name="Rectangle 303" width="197.7" height="111.523" transform="translate(92.019 1080.921)" fill="#fff"/>
      <circle id="Ellipse_74" data-name="Ellipse 74" cx="2.028" cy="2.028" r="2.028" transform="translate(188.673 1073.824)" fill="#fff"/>
      <path id="Path_1285" data-name="Path 1285" d="M471.051,142.625H329.89V31.1Z" transform="translate(-237.871 1049.819)" fill="#f2f2f2"/>
      <circle id="Ellipse_75" data-name="Ellipse 75" cx="19.004" cy="19.004" r="19.004" transform="translate(103.95 1146.092)" fill="#037ee6"/>
      <path id="Path_1286" data-name="Path 1286" d="M480.364,472.456A23.639,23.639,0,1,1,504,448.817a23.639,23.639,0,0,1-23.639,23.639Zm0-46.968a23.33,23.33,0,1,0,23.33,23.329,23.33,23.33,0,0,0-23.33-23.329Z" transform="translate(-353.18 706.923)" fill="#3f3d56"/>
      <rect id="Rectangle_304" data-name="Rectangle 304" width="18.467" height="3.859" transform="translate(225.485 1138.86)" fill="#faf076"/>
      <rect id="Rectangle_305" data-name="Rectangle 305" width="53.411" height="1.654" transform="translate(208.013 1117.955)" fill="#faf076"/>
      <rect id="Rectangle_306" data-name="Rectangle 306" width="53.411" height="1.654" transform="translate(208.013 1124.452)" fill="#faf076"/>
      <rect id="Rectangle_307" data-name="Rectangle 307" width="53.411" height="1.654" transform="translate(208.013 1130.95)" fill="#faf076"/>
      <rect id="Rectangle_308" data-name="Rectangle 308" width="7.718" height="7.718" transform="translate(268.014 1087.595)" fill="#faf076"/>
      <path id="Path_1287" data-name="Path 1287" d="M994.152,299.435H984.78v-9.372h9.372Zm-8.964-.407h8.557v-8.557h-8.556Z" transform="translate(-714.837 799.46)" fill="#ccc"/>
      <path id="Path_1288" data-name="Path 1288" d="M596.312,606.619H577.018v-1.39a.276.276,0,0,0-.276-.276h-6.615a.276.276,0,0,0-.276.276v1.39h-4.135v-1.39a.276.276,0,0,0-.276-.276h-6.615a.276.276,0,0,0-.276.276h0v1.39h-4.134v-1.39a.276.276,0,0,0-.276-.276h-6.615a.276.276,0,0,0-.276.276h0v1.39h-4.135v-1.39a.276.276,0,0,0-.276-.276h-6.615a.276.276,0,0,0-.276.276v1.39h-4.135v-1.39a.276.276,0,0,0-.276-.276h-6.615a.276.276,0,0,0-.276.276h0v1.39h-4.134v-1.39a.276.276,0,0,0-.276-.276h-6.615a.276.276,0,0,0-.276.276h0v1.39h-4.134v-1.39a.276.276,0,0,0-.276-.276H457.117a.276.276,0,0,0-.276.276h0v1.39h-4.134v-1.39a.276.276,0,0,0-.276-.276h-6.615a.276.276,0,0,0-.276.276h0v1.39h-4.134v-1.39a.276.276,0,0,0-.276-.276h-6.615a.276.276,0,0,0-.276.276h0v1.39h-4.135v-1.39a.276.276,0,0,0-.276-.276h-6.615a.276.276,0,0,0-.276.276h0v1.39H418.8v-1.39a.276.276,0,0,0-.276-.276h-6.615a.276.276,0,0,0-.276.276h0v1.39H407.5v-1.39a.276.276,0,0,0-.276-.276h-6.615a.276.276,0,0,0-.276.276v1.39H396.2v-1.39a.276.276,0,0,0-.276-.276h-6.615a.276.276,0,0,0-.276.276h0v1.39H376.357a6.615,6.615,0,0,0-6.615,6.615v2.991a6.615,6.615,0,0,0,6.615,6.615H596.312a6.615,6.615,0,0,0,6.615-6.615v-2.991a6.615,6.615,0,0,0-6.615-6.615Z" transform="translate(-293.607 583.798)" fill="#037ee6"/>
      <g id="Group_681" data-name="Group 681" transform="translate(49.305 1132.604)">
        <path id="Path_1269" data-name="Path 1269" d="M265.172,468.549a3.073,3.073,0,1,1,6.116.4l8.828,11.56a4.28,4.28,0,0,1-.578,4.7l-.693.808-3.177-.635-3.6-3.177.424-3.6-4.448-6.99.006-.005A3.07,3.07,0,0,1,265.172,468.549Z" transform="translate(-234.168 -450.733)" fill="#ffb9b9"/>
        <path id="Path_1270" data-name="Path 1270" d="M46.111,393.721l1.441-5.352-19.957-8.1-2.127,7.9Z" transform="translate(45.94 -319.388)" fill="#ffb8b8"/>
        <path id="Path_1272" data-name="Path 1272" d="M115.627,372.221l4.482-3.26-10.44-18.84-6.616,4.811Z" transform="translate(-51.066 -298.742)" fill="#ffb8b8"/>
        <path id="Path_1273" data-name="Path 1273" d="M159.5,638.871l14.453-10.511-.133-.183a6.956,6.956,0,0,0-9.717-1.535h0l-8.827,6.42Z" transform="translate(-92.918 -560.216)"/>
        <path id="Path_1274" data-name="Path 1274" d="M210.51,541.049l11.28-10.957a5.7,5.7,0,0,1,7.458-.417l21.3,23.66-1.907,2.965L228.3,542.531l-13.769,18.005L201.4,553.97Z" transform="translate(-184.051 -493.898)"/>
        <path id="Path_1275" data-name="Path 1275" d="M255.966,568.149l8.261-.635,5.983-1.451a3.073,3.073,0,1,1,.583,3.988v0l-3.6,1.483-15.463,5.3-1.906-1.483Z" transform="translate(-224.634 -518.669)" fill="#ffb9b9"/>
        <path id="Path_1276" data-name="Path 1276" d="M49.971,366.976l4.66,2.966h5.508L85.77,360.41l37.493,6.778,1.059-8.05L90.006,344.1l-30.079,9.956Z" transform="translate(-38.552 -294.618)"/>
        <ellipse id="Ellipse_72" data-name="Ellipse 72" cx="8.261" cy="8.261" rx="8.261" ry="8.261" transform="translate(13.114 4.362)" fill="#ffb9b9"/>
        <path id="Path_1277" data-name="Path 1277" d="M277.362,513.087a47.465,47.465,0,0,0,2.328,14.681l.619,1.9,2.966,13.557,3.177.847,2.33-2.966,4.66-3.389,3.389-5.507,2.906-4.842.907-1.512,3.177-15.887,12.074-6.778,4.025-.635-.847-2.33-3.6-4.872-3.6-.424-1.059-.847-.847.424-4.671,1.8-15.143-6.4-2.216.362-7.626,6.355A47.425,47.425,0,0,0,277.362,513.087Z" transform="translate(-277.362 -467.48)" fill="#faf076"/>
        <path id="Path_1278" data-name="Path 1278" d="M240.209,303.851l8.049,5.3,12.015,10.833.907-1.512,2.542-12.71h-.636l-6.567-12.074Z" transform="translate(-237.898 -260.089)" opacity="0.1"/>
        <path id="Path_1279" data-name="Path 1279" d="M235.681,289.649l6.567,12.074,3.813,4.237,3.389.847-9.108,9.956-12.921-11.65-8.049-5.3Z" transform="translate(-217.06 -257.326)" fill="#faf076"/>
        <path id="Path_1280" data-name="Path 1280" d="M333.817,425.214l.9.344a1.25,1.25,0,0,0,.334-1.735l-.015-.021,1.654-.077a12.49,12.49,0,0,0-18.646-1.5c-.075-.259-.9.245-1.231.757-.113-.422-.882,1.618-1.155,3.06-.126-.48-.611.3-.186,1.039-.269-.039-.391.649-.182,1.032-.294-.138-.245.683.074,1.232-.42-.037.036,8.612,6.338,7.982.439-2.016.315-1.891.832-4.483.24-.255.5-.488.767-.72l1.422-1.255c1.653-1.46,3.158-3.261,5.36-3.806,1.514-.375,2.471-.46,1.646-2.165.745.311,1.441.774,2.193,1.063C333.908,425.72,333.8,425.453,333.817,425.214Z" transform="translate(-306.016 -418.734)"/>
        <ellipse id="Ellipse_73" data-name="Ellipse 73" cx="1.483" cy="1.483" rx="1.483" ry="1.483" transform="translate(15.762 12.093)" fill="#ffb9b9"/>
        <path id="Path_1271" data-name="Path 1271" d="M97.193,625.234l4.646-17.256-.218-.059a6.956,6.956,0,0,0-8.525,4.908h0l-2.838,10.54Z" transform="translate(-0.322 -548.139)"/>
      </g>
    </g>
  </g>
</svg>
