<svg xmlns="http://www.w3.org/2000/svg" xmlns:xlink="http://www.w3.org/1999/xlink" width="302" height="233" viewBox="0 0 302 233">
  <defs>
    <linearGradient id="linear-gradient" x1="0.5" y1="1" x2="0.5" gradientUnits="objectBoundingBox">
      <stop offset="0" stop-color="gray" stop-opacity="0.251"/>
      <stop offset="0.54" stop-color="gray" stop-opacity="0.122"/>
      <stop offset="1" stop-color="gray" stop-opacity="0.102"/>
    </linearGradient>
  </defs>
  <g id="Group_1259" data-name="Group 1259" transform="translate(2446 1114)">
    <rect id="Rectangle_682" data-name="Rectangle 682" width="302" height="233" transform="translate(-2446 -1114)" fill="none"/>
    <g id="Group_819" data-name="Group 819" transform="translate(-1045.376 -179.5)">
      <g id="Group_815" data-name="Group 815" transform="translate(-1397 -1010.486)">
        <ellipse id="Ellipse_92" data-name="Ellipse 92" cx="24.855" cy="2.478" rx="24.855" ry="2.478" transform="translate(178.704 278.88)" fill="#6c63ff" opacity="0.1"/>
        <path id="Path_1489" data-name="Path 1489" d="M132.226,487.31l-.109,5.886-.873,47.712-7.477,17.508-25.766.3v-68.69l26.891-2.13Z" transform="translate(-69.085 -294.921)" fill="#5f5d7e"/>
        <path id="Path_1490" data-name="Path 1490" d="M132.226,487.31l-.109,5.886-.873,47.712-7.477,17.508-25.766.3v-68.69l26.891-2.13Z" transform="translate(-69.085 -294.921)" opacity="0.37"/>
        <path id="Path_1491" data-name="Path 1491" d="M193.789,487.31l-.109,5.886-.873,47.712-7.477,17.508,1.968-65.108-.006-.041-.838-5.376Z" transform="translate(-130.649 -294.921)" opacity="0.37"/>
        <path id="Path_1492" data-name="Path 1492" d="M124.891,487.891l7.335-.581-.109,5.886-6.388.071L98,493.577v-3.555Z" transform="translate(-69.085 -294.921)" opacity="0.1"/>
        <path id="Path_1493" data-name="Path 1493" d="M927.327,487.082v68.295h-6l-24-17.505V485.155l21.441-2.015,1.316.6,1.242.572Z" transform="translate(-632.575 -291.981)" opacity="0.5"/>
        <rect id="Rectangle_364" data-name="Rectangle 364" width="5.998" height="71.632" transform="translate(288.754 191.764)" opacity="0.5"/>
        <path id="Path_1494" data-name="Path 1494" d="M927.327,483.745v3.927l-6,.068-24,.266v-2.85l21.441-2.015,1.316.6,1.242.572v-.572Z" transform="translate(-632.575 -291.981)" opacity="0.1"/>
        <path id="Path_1495" data-name="Path 1495" d="M294.752,464.246v5.565L0,473.1v-7.081l27.734-5.606,241.349-1.77Z" transform="translate(0 -274.71)" fill="#037ee6"/>
        <path id="Path_1496" data-name="Path 1496" d="M294.752,477.64V483.2L0,486.491V479.41Z" transform="translate(0 -288.104)" fill="#0561af"/>
        <rect id="Rectangle_365" data-name="Rectangle 365" width="103.243" height="80.161" rx="12" transform="translate(107.84 106.135)" fill="#037ee6"/>
        <rect id="Rectangle_366" data-name="Rectangle 366" width="86.779" height="65.391" transform="translate(116.148 113.367)" fill="#fff"/>
        <circle id="Ellipse_93" data-name="Ellipse 93" cx="1.422" cy="1.422" r="1.422" transform="translate(111.339 144.639)" fill="#e6e8ec"/>
        <circle id="Ellipse_94" data-name="Ellipse 94" cx="2.346" cy="2.346" r="2.346" transform="translate(204.427 143.869)" fill="#e6e8ec"/>
        <path id="Path_1498" data-name="Path 1498" d="M727.089,397.471a3.694,3.694,0,0,0-.333-1.039c.224-.764.369-1.233.369-1.233a1.729,1.729,0,0,0-.035-.3,4.529,4.529,0,0,0-4.588-3.8c-1.77.032-5.128.15-8.851.569.213-1.49.466-3.272.732-5.107l.487.053a2.33,2.33,0,0,1,.348.018h.156a1.606,1.606,0,0,0,1.08-.33.637.637,0,0,0-.2-1.044,2.632,2.632,0,0,0,2.31-.968,2.065,2.065,0,0,0,0-2.4c-.623-.885-1.941-1.475-2.012-2.517a3.076,3.076,0,0,1,.667-1.643,6.866,6.866,0,0,0-1.083-8.247,16.148,16.148,0,0,0-1.31-1.165,22.046,22.046,0,0,0-1.528-4.582c-.26-.086-.705-.646-1.13-1.127a5.439,5.439,0,0,0-.021-1.219c-.313-2.065-2.361-3.541-3.488-5.364a9.26,9.26,0,0,1-1.042-6.146,43.963,43.963,0,0,1,1.611-6.149,7.828,7.828,0,0,0,.316-4.623,8.4,8.4,0,0,0-1.9-2.868,21.678,21.678,0,0,0-6.763-5.311,13.439,13.439,0,0,0-5.986-1.28h-.021l-.324.018-.23.015-.23.024-.245.024h0c-.251.032-.5.071-.746.121a25.764,25.764,0,0,0-5.473-.614h-.239a2.8,2.8,0,0,0-1.564.369c-.655.457-.738,1.278-.935,1.992a5.526,5.526,0,0,1-2.125,2.95c-.705.507-1.534.885-2.207,1.416a2.248,2.248,0,0,0-1.018,2.113,2.306,2.306,0,0,0,1.475,1.446c-.085.106-.174.21-.257.319.139.056.295.106.422.147.885.263,1.838.3,2.735.534a6,6,0,0,1,.726.245,10.361,10.361,0,0,0-1.213,4.874,10.5,10.5,0,0,0,5.494,9.211v.3c.091,3.08-.142,6.827-1.717,7.462s-3.083,1.351-4.013,1.815l-.3.156c-.245-.112-.49-.23-.729-.354,0,0-1.254-.147-1.036.808,0,0-3.791-.59-5.871,1.03a54.065,54.065,0,0,0-6.164,5.883c-.67.882-5.848,2.812-5.848,2.812a6.64,6.64,0,0,0,.927-5.075s-.779-3.369-.407-4.721S665.1,358.6,665.1,358.6s.136-5.293-2.753-7.721-4.9-4.426-3.782-2.065a32.922,32.922,0,0,0,1.635,3.16s-6.907,1.64-4.455,4.2,3.119,2.564,3.119,2.564-.817,6.323-.968,7.5-1.475,10.147-1.475,10.147-.074,4.266.67,4.927a3.356,3.356,0,0,0,3.564,2.655s5.866-.147,7.5-.808,7.276-4.193,7.872-3.971a.34.34,0,0,1,.115.077.832.832,0,0,1,.089.088c-.59,1.307-1.989,5.745-1.393,7.925,0,0-.519,6.175,2.6,8.161,0,0,4.529,7.648,2.821,11.764-.136.333-.257.64-.369.938-2.594-2.151-6.55-4.131-12.593-5.225-.617-.112-1.23-.248-1.838-.4-1.717-.416-6.441-.8-8.689,6.671a32.855,32.855,0,0,1-1.995,5.051,16.678,16.678,0,0,0-1.888,6.9c-.05,3.57,1.794,7.108,8.486,8.406a25.461,25.461,0,0,0,1.286,8.093c1.856,4.632,4.827,12.132,4.827,12.132s3.564,7.648,3.788,10.734a49.27,49.27,0,0,1,.209,6.491,2.873,2.873,0,0,1-.03.325,7.824,7.824,0,0,1-1,.906,7.994,7.994,0,0,0-2.228,2.573,7.844,7.844,0,0,0,.112,1.257,3.1,3.1,0,0,0-1.251,2.242c0,3.989,11.321,7.223,25.286,7.223s25.283-3.246,25.283-7.223c0-3.641-9.442-6.65-21.71-7.146a23.065,23.065,0,0,0,5.771-2.95,1.381,1.381,0,0,0,.446-.608l-2.375-5.514s-.186.041-.46.121l-.165-.248c-1.056-1.608-3.089-4.812-3.089-5.683,0-.322-.537-2.378-1.316-5.2v-9.043c7.748,1.18,17.732-.425,17.732-.425l.044-.024h.195v-.106c1.343-.744,8.058-4.676,10.049-9.893.59-1.522-.145-3.7-1.6-6.034,1.021-2.534,3.541-9.082,3.29-11.693,0-.139-.018-.3-.018-.448a7.725,7.725,0,0,0,.03-.8c.3-3.836,2.655-10.843,2.655-10.843S727.119,397.648,727.089,397.471Zm-50.158-17.042c.537.944,1.112,2.151,1.34,2.641h0s-.785-1.446-1.325-2.641Zm.561,82.643-.056.021V462.8a17.5,17.5,0,0,1,.056-2.307,2.7,2.7,0,0,0-.254-1.2,28.32,28.32,0,0,1-1.809-7.12,35.7,35.7,0,0,1-.386-6.093,107.939,107.939,0,0,0,.133-13.472l4.567,1.027,5.311,10.828s3.417,5.287,4.476,9.459V458.1a10.212,10.212,0,0,1-1.6,3.464c-.705.965-1.393,1.941-2.03,2.951-.195.313-.41.634-.625.935-.071,0-3.561.2-4.154.859a3.966,3.966,0,0,0-1.109,1.682l-.15.024a35.222,35.222,0,0,0-2.357-4.942Z" transform="translate(-489.906 -198.641)" fill="url(#linear-gradient)"/>
        <path id="Path_1499" data-name="Path 1499" d="M773.953,767.758l-1.18,3.836-5.016,4.352-7.376,2.118s-3.467-1.9-2.287-2.266a2.911,2.911,0,0,0,1.112-.968c-.413,1.5,2.871-.434,2.871-.434s8.483-6.048,9.368-6.712a6.671,6.671,0,0,1,1.888-.865C773.7,767.4,773.953,767.758,773.953,767.758Z" transform="translate(-563.9 -507.118)" opacity="0.1"/>
        <path id="Path_1500" data-name="Path 1500" d="M754.8,688.782l-1.18,3.836L748.6,696.97l-7.376,2.118s-3.467-1.9-2.287-2.266a2.911,2.911,0,0,0,1.112-.968,14.736,14.736,0,0,0,.985-1.422c.631-1.015,1.316-1.994,2.015-2.95a10.622,10.622,0,0,0,1.862-4.9c.516-4.057-4.721-12.245-4.721-12.245L730.68,654.79l13.277,1.623s7.155,24.563,7.155,25.743c0,.885,2.018,4.086,3.068,5.7C754.549,688.419,754.8,688.782,754.8,688.782Z" transform="translate(-544.747 -428.142)" fill="#fdc2cc"/>
        <ellipse id="Ellipse_95" data-name="Ellipse 95" cx="25.114" cy="7.243" rx="25.114" ry="7.243" transform="translate(177.574 268.863)"/>
        <path id="Path_1501" data-name="Path 1501" d="M767.892,772.782a1.416,1.416,0,0,1-.443.611c-1.823,1.673-8.642,4.16-12.855,5.511a29.834,29.834,0,0,1-3.372.959,10,10,0,0,1-4.647-1.5c-1.475-.906-.148-2.192.449-2.856s4.131-.861,4.131-.861c-1.7,2.824,2.5.345,2.5.345s8.483-6.048,9.368-6.712a8.143,8.143,0,0,1,2.508-1.033Z" transform="translate(-555.478 -507.422)" fill="#6c63ff"/>
        <path id="Path_1502" data-name="Path 1502" d="M767.892,772.782a1.416,1.416,0,0,1-.443.611c-1.823,1.673-8.642,4.16-12.855,5.511a29.834,29.834,0,0,1-3.372.959,10,10,0,0,1-4.647-1.5c-1.475-.906-.148-2.192.449-2.856s4.131-.861,4.131-.861c-1.7,2.824,2.5.345,2.5.345s8.483-6.048,9.368-6.712a8.143,8.143,0,0,1,2.508-1.033Z" transform="translate(-555.478 -507.422)" fill="#037ee6"/>
        <path id="Path_1503" data-name="Path 1503" d="M788.215,788.09c-1.823,1.673-8.642,4.16-12.855,5.511C779.178,790.368,785.58,788.677,788.215,788.09Z" transform="translate(-576.244 -522.113)" opacity="0.1"/>
        <ellipse id="Ellipse_96" data-name="Ellipse 96" cx="5.025" cy="1.449" rx="5.025" ry="1.449" transform="translate(197.664 272.324)" fill="#dbdbdb" opacity="0.1"/>
        <rect id="Rectangle_367" data-name="Rectangle 367" width="5.163" height="38.209" transform="translate(199.895 235.564)"/>
        <path id="Path_1504" data-name="Path 1504" d="M783.163,686.9v4.426A36.316,36.316,0,0,1,778,688.606V685h1.077Z" transform="translate(-578.105 -449.439)" opacity="0.1"/>
        <path id="Path_1505" data-name="Path 1505" d="M754.27,609.219s17.048-4.387,21.291-7.671,20.9,12.168,18.7,18S784.049,629.6,784.049,629.6s-22.161,3.606-25.935-3.915S754.27,609.219,754.27,609.219Z" transform="translate(-561.377 -390.29)"/>
        <path id="Path_1507" data-name="Path 1507" d="M749.27,603.219s17.048-4.387,21.291-7.671,20.9,12.168,18.7,18S779.049,623.6,779.049,623.6s-22.161,3.605-25.935-3.915S749.27,603.219,749.27,603.219Z" transform="translate(-557.852 -386.06)"/>
        <path id="Path_1509" data-name="Path 1509" d="M780.767,411.8v4.131l-4.278,1.4-7.288,5.364-1.933,1.422-8.63-3.467-5.458-5.753s.266-.145.726-.384l.3-.156c.923-.463,2.378-1.18,3.986-1.82s1.8-4.393,1.705-7.485v-.3c-.074-2.169-.3-3.942-.3-3.942s.9-.171,2.21-.366c3.632-.54,10.409-1.269,9.813.956a5.128,5.128,0,0,0,0,2.3c.018.083.035.168.056.251a19.466,19.466,0,0,0,2.514,5.491l5.9,2.124.165.059Z" transform="translate(-560.608 -248.443)" fill="#fdc2cc"/>
        <path id="Path_1510" data-name="Path 1510" d="M838.044,441.381v-1.254a4.13,4.13,0,0,1,1.4,0c.516.148,1.5,1.7,1.938,1.844s3.151,10.253,2.856,11.138-3.083,20.869-3.083,20.869l-5.621,6.2-1.107-17.039,3.614-10.105Z" transform="translate(-617.886 -276.773)" fill="#fdc2cc"/>
        <path id="Path_1511" data-name="Path 1511" d="M737.078,601.77s-5.137,1.106-4.485,2.729,3.526,1.7,3.526,1.7Z" transform="translate(-546.056 -390.766)" fill="#fdc2cc"/>
        <path id="Path_1513" data-name="Path 1513" d="M699.113,663.609a17.627,17.627,0,0,0-.056,2.313c.021.823.056,1.522.056,1.522l-1.7,3.541s-5.827,1.918-4.868,1.106a3.2,3.2,0,0,0,.59-1.974,50.094,50.094,0,0,0-.209-6.509c-.221-3.1-3.762-10.769-3.762-10.769s-2.95-7.524-4.794-12.171-1.18-13.056-1.18-13.056.3-6.344,1.623-8.261,6.491-2.582,6.491-2.582l2.422,8.034s1.992,7.524,2.729,8.63.516,14.31.221,15.711a37.566,37.566,0,0,0,.387,6.113,28.707,28.707,0,0,0,1.794,7.14,2.725,2.725,0,0,1,.254,1.21Z" transform="translate(-511.188 -401.34)" fill="#fdc2cc"/>
        <path id="Path_1514" data-name="Path 1514" d="M721.49,784.883l-1.7,3.541s-5.827,1.918-4.868,1.106a3.2,3.2,0,0,0,.59-1.974c.209-.21.434-.44.664-.676a14.9,14.9,0,0,1,5.267-3.52h0C721.455,784.183,721.49,784.883,721.49,784.883Z" transform="translate(-533.566 -518.778)" opacity="0.1"/>
        <path id="Path_1515" data-name="Path 1515" d="M718.076,790.793a.167.167,0,0,1,0,.041c-.3,1.4-5.163,3.319-5.163,3.319s-3.1.516-4.868.959a1.226,1.226,0,0,1-.416.038c-1.366-.1-1.428-2.732-1.428-3.136a8.382,8.382,0,0,1,2.213-2.582,15.832,15.832,0,0,0,1.64-1.573,15.225,15.225,0,0,1,5.376-3.591h0S718.312,789.339,718.076,790.793Z" transform="translate(-527.49 -519.42)" fill="#6c63ff"/>
        <path id="Path_1516" data-name="Path 1516" d="M718.076,790.78a.167.167,0,0,1,0,.041c-.3,1.4-5.163,3.319-5.163,3.319s-3.1.516-4.868.959a1.223,1.223,0,0,1-.416.038c-1.366-.1-1.428-2.732-1.428-3.136a8.382,8.382,0,0,1,2.213-2.582,15.638,15.638,0,0,0,1.664-1.6,14.922,14.922,0,0,1,5.27-3.541l.083-.032S718.312,789.325,718.076,790.78Z" transform="translate(-527.49 -519.406)" fill="#037ee6"/>
        <path id="Path_1517" data-name="Path 1517" d="M721.488,806.262a.173.173,0,0,1,0,.041c-.3,1.4-5.163,3.319-5.163,3.319s-3.1.516-4.868.959a1.229,1.229,0,0,1-.416.038c1.605-1.1,5.5-3.741,6.022-3.8S720.175,806.017,721.488,806.262Z" transform="translate(-530.902 -534.888)" opacity="0.1"/>
        <path id="Path_1518" data-name="Path 1518" d="M787.042,403.947c-1.823,1.5-3.5,1.286-6.046,1.286-1.841,0-4.234.646-5.742-.183-.062-2.3-.3-4.243-.3-4.243s12.835-2.434,12.023.59A5.363,5.363,0,0,0,787.042,403.947Z" transform="translate(-575.962 -248.444)" opacity="0.1"/>
        <path id="Path_1520" data-name="Path 1520" d="M741.63,458.365l2.8,4.426-3.909,8.424-4.647,3.393-.811-5.258s-1.57-3.467-2.245-4.054c.195-.475.328-.693.328-.519,0,.738,1.815,4.057,1.815,4.057,5.606-1.918,3.865-9.368,3.865-9.368s-.7-6.639-.968-8.385l.968.419Z" transform="translate(-546.256 -284.537)" opacity="0.1"/>
        <path id="Path_1521" data-name="Path 1521" d="M780.767,439.847v4.131l-4.278,1.4-7.288,5.364-1.933,1.422-8.63-3.467-5.458-5.753s.266-.145.726-.383l.3-.156a36.026,36.026,0,0,0,14.9,2.679c11.114-1.77,11.445-4.455,11.168-5.408Z" transform="translate(-560.608 -276.493)" opacity="0.1"/>
        <path id="Path_1522" data-name="Path 1522" d="M736.87,506.6a82.715,82.715,0,0,1-8.556,3.614c-5.09,1.844-16.3-.59-17.7-.959s-12.171-4.647-16.3-6.27-5.163-.3-6.122-.443-1.623-1.992-1.77-2.508,2.655-5.016,4.2-7.3,6.2-1.844,6.86-1.992,5.311,0,5.311,0-.295-1.475,1.4-5.606-2.8-11.8-2.8-11.8c-3.1-1.992-2.582-8.188-2.582-8.188-.738-2.729,1.623-9,1.623-8.261s1.815,4.057,1.815,4.057c5.606-1.918,3.865-9.368,3.865-9.368s-.811-7.745-1.027-8.7,1.027-.811,1.027-.811q.36.186.726.354a35.859,35.859,0,0,0,15.207,2.818c13.475-2.174,11.088-5.641,11-5.765l.655.233c4.868,3.541,3.393,15.269,3.393,15.269l-1.823,8.754-1.354,6.521s4.794,29.062,5.237,30.537S736.87,506.6,736.87,506.6Z" transform="translate(-513.54 -276.345)" fill="#faf076"/>
        <path id="Path_1523" data-name="Path 1523" d="M730.742,622c-.3.221-3.614,7.081-1.18,9S730.742,622,730.742,622Z" transform="translate(-543.334 -405.027)" opacity="0.1"/>
        <path id="Path_1524" data-name="Path 1524" d="M743.68,625.27c.074.221,6.934,11.138,10.7,12.023Z" transform="translate(-553.911 -407.332)" opacity="0.1"/>
        <path id="Path_1525" data-name="Path 1525" d="M797.068,332.381l-1.1.233a7.4,7.4,0,0,1,.926-.274Z" transform="translate(-590.773 -200.831)" opacity="0.1"/>
        <path id="Path_1527" data-name="Path 1527" d="M867.549,520.651a1.01,1.01,0,0,1-.189-.026A.392.392,0,0,1,867.549,520.651Z" transform="translate(-641.1 -333.561)" opacity="0.1"/>
        <path id="Path_1528" data-name="Path 1528" d="M758.006,329.918a25.373,25.373,0,0,0-5.63-.658,3.116,3.116,0,0,0-1.77.372c-.652.457-.735,1.283-.929,2a5.541,5.541,0,0,1-2.109,2.95c-.7.51-1.522.885-2.192,1.422a2.288,2.288,0,0,0-1.012,2.118,2.62,2.62,0,0,0,1.936,1.64c.885.251,1.826.3,2.718.537,2.829.735,4.75,3.541,4.178,6.093-.3,1.272-1.1,2.475-.977,3.768.145,1.543,1.57,2.732,2.239,4.163a9,9,0,0,1,.522,4.178l-.18,5.175c-.047,1.363.071,3,1.416,3.67.72.354,1.617.316,2.36.628,1.458.608,1.841,2.263,1.959,3.685a38.084,38.084,0,0,1,.024,6.057,2.841,2.841,0,0,0,.59,2.493,3.163,3.163,0,0,0,1.18.572,17.5,17.5,0,0,0,4.55.779,9.189,9.189,0,0,1,3.638.5,8.807,8.807,0,0,1,2.095,1.753,11.577,11.577,0,0,0,6.839,2.995,2.037,2.037,0,0,0,1.546-.316c.381-.351.156-1.109-.386-1.065a2.623,2.623,0,0,0,2.484-.95,2.1,2.1,0,0,0,0-2.411c-.617-.885-1.927-1.475-2-2.526a3.115,3.115,0,0,1,.661-1.649,6.936,6.936,0,0,0-1.074-8.261c-1.384-1.431-3.458-2.517-3.942-4.352-.322-1.227.165-2.517-.021-3.765-.3-2.065-2.34-3.541-3.464-5.382a9.357,9.357,0,0,1-1.036-6.164,43.859,43.859,0,0,1,1.6-6.167,7.958,7.958,0,0,0,.313-4.641,8.5,8.5,0,0,0-1.891-2.877,21.3,21.3,0,0,0-6.715-5.311,12.279,12.279,0,0,0-8.769-.808" transform="translate(-554.37 -198.659)" fill="#474157"/>
        <path id="Path_1530" data-name="Path 1530" d="M737.18,548.165s2.508.959,5.163-1.7S737.18,548.165,737.18,548.165Z" transform="translate(-549.329 -351.176)" opacity="0.1"/>
        <g id="Group_814" data-name="Group 814" transform="translate(189.916 130.618)" opacity="0.1">
          <path id="Path_1531" data-name="Path 1531" d="M793.03,330.846a10.5,10.5,0,0,1,1.475-.186,11.2,11.2,0,0,0-2.065.065Z" transform="translate(-778.201 -330.25)"/>
          <path id="Path_1532" data-name="Path 1532" d="M773.8,383.857a8.82,8.82,0,0,0-2.1-1.753,9.182,9.182,0,0,0-3.638-.5,17.409,17.409,0,0,1-4.55-.779,3.163,3.163,0,0,1-1.18-.572,2.875,2.875,0,0,1-.59-2.493,38.091,38.091,0,0,0-.024-6.057c-.121-1.422-.5-3.077-1.962-3.685-.746-.313-1.64-.274-2.36-.628-1.345-.667-1.475-2.307-1.419-3.67q.092-2.588.18-5.172a8.966,8.966,0,0,0-.522-4.181c-.67-1.431-2.095-2.617-2.239-4.163-.121-1.289.693-2.5.98-3.768.572-2.558-1.351-5.358-4.181-6.093-.885-.23-1.835-.277-2.717-.537a2.589,2.589,0,0,1-1.921-1.623,2.246,2.246,0,0,1,1.009-2.121c.67-.54,1.493-.912,2.2-1.422a5.52,5.52,0,0,0,2.107-2.95,3.31,3.31,0,0,1,.929-2,2.361,2.361,0,0,1,1.21-.354c-.263,0-.525-.015-.785-.015a3.139,3.139,0,0,0-1.77.369c-.652.46-.735,1.283-.929,2a5.541,5.541,0,0,1-2.109,2.95c-.7.51-1.523.885-2.192,1.422a2.29,2.29,0,0,0-1.012,2.121,2.6,2.6,0,0,0,1.924,1.623c.882.263,1.826.3,2.717.537,2.83.735,4.75,3.541,4.178,6.093-.3,1.272-1.1,2.478-.977,3.768.145,1.546,1.57,2.732,2.239,4.163a8.966,8.966,0,0,1,.522,4.181q-.091,2.585-.18,5.172c-.047,1.363.071,3,1.416,3.67.72.354,1.617.316,2.36.628,1.457.608,1.841,2.263,1.959,3.685a38.091,38.091,0,0,1,.024,6.057,2.841,2.841,0,0,0,.59,2.493,3.163,3.163,0,0,0,1.18.572,17.378,17.378,0,0,0,4.55.779,9.19,9.19,0,0,1,3.638.5,8.88,8.88,0,0,1,2.1,1.753,11.56,11.56,0,0,0,6.836,2.995,3.16,3.16,0,0,0,.988-.038,11.539,11.539,0,0,1-6.473-2.956Z" transform="translate(-744.18 -329.32)"/>
        </g>
        <path id="Path_1533" data-name="Path 1533" d="M684.533,484s-2.361,2.166-2.015,3.051S684.533,484,684.533,484Z" transform="translate(-510.77 -307.744)" opacity="0.1"/>
        <path id="Path_1534" data-name="Path 1534" d="M667.014,577.9c-1.7-.416-6.4-.8-8.63,6.692a33.156,33.156,0,0,1-1.98,5.066c-2.142,4.4-4.91,13.445,7.261,15.437l29.21,6.639s15.637,1.918,16.67,1.18a2.859,2.859,0,0,0,.885-2.36s-17.26,0-20.653-5.311-3.541-12.539-3.541-12.539.425-11.162-17.408-14.4C668.238,578.19,667.618,578.052,667.014,577.9Z" transform="translate(-491.062 -373.81)" fill="#474157"/>
        <path id="Path_1535" data-name="Path 1535" d="M667.014,578.074c-1.7-.416-6.4-.8-8.63,6.695a33.156,33.156,0,0,1-1.98,5.066c-2.142,4.4-4.91,13.442,7.261,15.434l29.21,6.639s15.637,1.918,16.67,1.18a2.859,2.859,0,0,0,.885-2.36s-17.26,0-20.653-5.311-3.541-12.54-3.541-12.54.425-11.162-17.408-14.4C668.238,578.361,667.618,578.216,667.014,578.074Z" transform="translate(-491.062 -373.93)"/>
        <path id="Path_1537" data-name="Path 1537" d="M806.993,552.828a4.424,4.424,0,0,0-4.558-3.52c-4.2.071-17.133.59-23.141,4.21,0,0-4.573,2.723-5.9,2.723s-19.326,14.162,7.376,26.829c0,0,14.31,3.759,19.916-5.066,0,0,3.983-9.48,3.688-12.761s2.655-12.132,2.655-12.132S807.023,553.005,806.993,552.828Z" transform="translate(-569.81 -353.782)"/>
        <rect id="Rectangle_368" data-name="Rectangle 368" width="4.721" height="10.052" transform="translate(218.188 229.22)"/>
        <ellipse id="Ellipse_97" data-name="Ellipse 97" cx="13.289" cy="0.853" rx="13.289" ry="0.853" transform="translate(36.94 186.639)" opacity="0.1"/>
        <path id="Path_1540" data-name="Path 1540" d="M251.774,410.269l-.8,2.375s-.451-.319-1.021-.82c-1.139-.994-2.759-2.708-2.239-4.03.558-1.419,2.4.454,3.4,1.64C251.506,409.9,251.774,410.269,251.774,410.269Z" transform="translate(-204.207 -253.662)" fill="#faf076"/>
        <path id="Path_1541" data-name="Path 1541" d="M265.251,406.026a11.489,11.489,0,0,1-.791.929,12.452,12.452,0,0,1-.145-1.248c-.068-1.216.062-2.83,1.28-2.47S265.982,405.052,265.251,406.026Z" transform="translate(-215.972 -250.774)" fill="#faf076"/>
        <path id="Path_1542" data-name="Path 1542" d="M297.434,406.853c-.024.782-.1,1.4-.1,1.4a10.02,10.02,0,0,1-1.012-.9c-.918-.953-1.933-2.422-.51-3.307C297.293,403.13,297.476,405.3,297.434,406.853Z" transform="translate(-237.687 -251.227)" fill="#faf076"/>
        <path id="Path_1543" data-name="Path 1543" d="M310.146,411.048a5.234,5.234,0,0,1-2.136,1.608,5.96,5.96,0,0,1-.714.257l-.956-1.342a9.748,9.748,0,0,1,.4-1.3,5.068,5.068,0,0,1,.673-1.266A1.711,1.711,0,0,1,310.146,411.048Z" transform="translate(-245.607 -254.397)" fill="#faf076"/>
        <path id="Path_1544" data-name="Path 1544" d="M256.691,414.57c.4.469.673.835.673.835l-.8,2.375s-.451-.319-1.021-.82a4.647,4.647,0,0,1,.915-2.086A2.778,2.778,0,0,1,256.691,414.57Z" transform="translate(-209.796 -258.799)" opacity="0.1"/>
        <path id="Path_1545" data-name="Path 1545" d="M265.285,412.049a11.483,11.483,0,0,1-.791.929,12.456,12.456,0,0,1-.145-1.248A1.612,1.612,0,0,1,265.285,412.049Z" transform="translate(-216.007 -256.797)" opacity="0.1"/>
        <path id="Path_1546" data-name="Path 1546" d="M262.9,422.489l-2.018.885s-.44-.212-1.074-.608c-2.121-1.307-6.385-4.591-3.526-8.462s5.243,3.074,6.181,6.468C262.765,421.789,262.9,422.489,262.9,422.489Z" transform="translate(-209.648 -257.807)" fill="#faf076"/>
        <path id="Path_1547" data-name="Path 1547" d="M299.22,414.582a1.643,1.643,0,0,1,1.112-.5c-.024.782-.1,1.4-.1,1.4A10.034,10.034,0,0,1,299.22,414.582Z" transform="translate(-240.588 -258.453)" opacity="0.1"/>
        <path id="Path_1548" data-name="Path 1548" d="M308.01,417.29a5.947,5.947,0,0,1-.714.257l-.956-1.342a9.748,9.748,0,0,1,.4-1.3A3.414,3.414,0,0,1,308.01,417.29Z" transform="translate(-245.607 -259.031)" opacity="0.1"/>
        <path id="Path_1549" data-name="Path 1549" d="M285.305,426.475l-.339.059c-6.765,1.03-2.231-2.62-2.231-2.62s.3-.28.717-.741a8,8,0,0,0,2.186-3.936c.212-2.192.457-4.249,3.045-3.644C291.236,416.187,291.723,425.192,285.305,426.475Z" transform="translate(-227.919 -259.445)" fill="#faf076"/>
        <rect id="Rectangle_369" data-name="Rectangle 369" width="12.926" height="3.399" transform="translate(44.346 183.871)" fill="#474157"/>
        <rect id="Rectangle_370" data-name="Rectangle 370" width="16.889" height="11.861" transform="translate(42.292 172.825)" fill="#474157"/>
        <rect id="Rectangle_371" data-name="Rectangle 371" width="12.926" height="3.399" transform="translate(44.222 183.871)" opacity="0.1"/>
        <rect id="Rectangle_372" data-name="Rectangle 372" width="16.889" height="11.861" transform="translate(42.239 172.828)" opacity="0.1"/>
        <rect id="Rectangle_373" data-name="Rectangle 373" width="12.926" height="3.399" transform="translate(45.195 183.871)"/>
        <path id="Path_1550" data-name="Path 1550" d="M273.215,439c.3,1.015.437,1.714.437,1.714l-2.018.885s-.44-.212-1.074-.608A5.061,5.061,0,0,1,273.215,439Z" transform="translate(-220.384 -276.021)" opacity="0.1"/>
        <path id="Path_1551" data-name="Path 1551" d="M285.305,444.842l-.339.059c-6.765,1.03-2.231-2.62-2.231-2.62s.3-.28.717-.741A4.456,4.456,0,0,1,285.305,444.842Z" transform="translate(-227.919 -277.811)" opacity="0.1"/>
        <path id="Path_1552" data-name="Path 1552" d="M257.76,450.314s3.788-13.572,9.1-9.382-2.163,10.622-2.163,10.622Z" transform="translate(-211.361 -276.817)" fill="#faf076"/>
        <circle id="Ellipse_98" data-name="Ellipse 98" cx="0.425" cy="0.425" r="0.425" transform="translate(47.886 158.199)" opacity="0.1"/>
        <circle id="Ellipse_99" data-name="Ellipse 99" cx="0.425" cy="0.425" r="0.425" transform="translate(47.851 160.185)" opacity="0.1"/>
        <circle id="Ellipse_100" data-name="Ellipse 100" cx="0.425" cy="0.425" r="0.425" transform="translate(60.175 158.589)" opacity="0.1"/>
        <circle id="Ellipse_101" data-name="Ellipse 101" cx="0.425" cy="0.425" r="0.425" transform="translate(50.258 168.753)" opacity="0.1"/>
        <circle id="Ellipse_102" data-name="Ellipse 102" cx="0.425" cy="0.425" r="0.425" transform="translate(59.29 161.885)" opacity="0.1"/>
        <circle id="Ellipse_103" data-name="Ellipse 103" cx="0.425" cy="0.425" r="0.425" transform="translate(54.899 166.275)" opacity="0.1"/>
        <circle id="Ellipse_104" data-name="Ellipse 104" cx="0.425" cy="0.425" r="0.425" transform="translate(49.338 159.049)" opacity="0.1"/>
        <circle id="Ellipse_105" data-name="Ellipse 105" cx="0.425" cy="0.425" r="0.425" transform="translate(59.007 159.866)" opacity="0.1"/>
        <circle id="Ellipse_106" data-name="Ellipse 106" cx="0.425" cy="0.425" r="0.425" transform="translate(57.555 163.159)" opacity="0.1"/>
        <circle id="Ellipse_107" data-name="Ellipse 107" cx="0.425" cy="0.425" r="0.425" transform="translate(53.091 168.435)" opacity="0.1"/>
        <circle id="Ellipse_108" data-name="Ellipse 108" cx="0.425" cy="0.425" r="0.425" transform="translate(52.17 166.346)" opacity="0.1"/>
        <circle id="Ellipse_109" data-name="Ellipse 109" cx="0.425" cy="0.425" r="0.425" transform="translate(49.975 161.637)" opacity="0.1"/>
        <rect id="Rectangle_374" data-name="Rectangle 374" width="12.926" height="1.242" transform="translate(45.195 183.871)" opacity="0.1"/>
        <rect id="Rectangle_375" data-name="Rectangle 375" width="16.889" height="11.861" transform="translate(43.142 172.825)"/>
        <circle id="Ellipse_110" data-name="Ellipse 110" cx="0.425" cy="0.425" r="0.425" transform="translate(53.657 170.347)" opacity="0.1"/>
        <circle id="Ellipse_111" data-name="Ellipse 111" cx="0.425" cy="0.425" r="0.425" transform="translate(51.108 170.878)" opacity="0.1"/>
        <path id="Path_1553" data-name="Path 1553" d="M398.558,626s2.1,2.753-.971,6.907-5.606,7.671-4.591,10.256c0,0,4.644-7.719,8.424-7.825S402.715,630.644,398.558,626Z" transform="translate(-306.536 -407.847)" fill="#037ee6"/>
        <path id="Path_1554" data-name="Path 1554" d="M398.834,626a3.39,3.39,0,0,1,.431.862c3.685,4.331,5.65,8.373,2.107,8.477-3.3.1-7.261,6-8.211,7.479.032.115.071.23.112.339,0,0,4.644-7.718,8.424-7.825S402.991,630.644,398.834,626Z" transform="translate(-306.811 -407.847)" opacity="0.1"/>
        <path id="Path_1555" data-name="Path 1555" d="M424.494,636.416c0,.968-.109,1.753-.242,1.753s-.242-.785-.242-1.753.136-.513.268-.513S424.494,635.445,424.494,636.416Z" transform="translate(-328.559 -414.752)" fill="#ffd037"/>
        <path id="Path_1556" data-name="Path 1556" d="M426.234,640.231c-.85.463-1.59.744-1.655.625s.572-.59,1.425-1.053.513-.127.59,0S427.087,639.768,426.234,640.231Z" transform="translate(-328.957 -417.411)" fill="#ffd037"/>
        <path id="Path_1557" data-name="Path 1557" d="M363.409,626s-2.1,2.753.971,6.907,5.606,7.671,4.588,10.256c0,0-4.641-7.719-8.421-7.825S359.252,630.644,363.409,626Z" transform="translate(-282.507 -407.847)" fill="#037ee6"/>
        <path id="Path_1558" data-name="Path 1558" d="M363.409,626a3.392,3.392,0,0,0-.431.862c-3.685,4.331-5.65,8.373-2.107,8.477,3.3.1,7.261,6,8.211,7.479a3.273,3.273,0,0,1-.115.339s-4.641-7.715-8.421-7.816S359.252,630.644,363.409,626Z" transform="translate(-282.507 -407.847)" opacity="0.1"/>
        <path id="Path_1559" data-name="Path 1559" d="M361.44,636.416c0,.968.109,1.753.242,1.753s.242-.785.242-1.753-.136-.513-.269-.513S361.44,635.445,361.44,636.416Z" transform="translate(-284.45 -414.752)" fill="#ffd037"/>
        <path id="Path_1560" data-name="Path 1560" d="M355.626,640.231c.85.463,1.59.744,1.655.625s-.572-.59-1.425-1.053-.513-.127-.59,0S354.774,639.768,355.626,640.231Z" transform="translate(-279.979 -417.411)" fill="#ffd037"/>
        <ellipse id="Ellipse_112" data-name="Ellipse 112" cx="22.011" cy="3.378" rx="22.011" ry="3.378" transform="translate(64.45 249.623)" fill="#6c63ff" opacity="0.1"/>
        <g id="Group_816" data-name="Group 816" transform="translate(128.562 128.689)">
          <path id="Path_1375" data-name="Path 1375" d="M474.538,1359.582l4.618,5.055c-2.89,2.18-4.7,6.457.135,11.543l-6.5,3.152C468.23,1371.351,468.874,1365.044,474.538,1359.582Z" transform="translate(-469.777 -1355.379)" fill="#037ee6"/>
          <path id="Path_1376" data-name="Path 1376" d="M551.909,1910.316l4.48.072.8-4.412c2.461,5.054,8.276,7.167,14.93,5.01l3.36,6.246C565.881,1921.611,556.159,1919.364,551.909,1910.316Z" transform="translate(-549.868 -1888.197)" fill="#037ee6"/>
          <path id="Path_1377" data-name="Path 1377" d="M1863.839,1206.975c3.632-7.179,13.217-9.827,20.111-5.9l6.987-2.313c-8.161-10.886-22.99-8.821-32.2,2.058Z" transform="translate(-1824.225 -1191.533)" fill="#037ee6"/>
          <path id="Path_1378" data-name="Path 1378" d="M2712.844,1350.187l2.964,6.925c10.817-4.505,14.09-19.761,4.324-26.483l.071,4.487-4.6.956C2722.376,1339.283,2719.36,1348.384,2712.844,1350.187Z" transform="translate(-2657.111 -1327.146)" fill="#037ee6"/>
          <path id="Path_1379" data-name="Path 1379" d="M1935.761,1987.953c10.248,7.37,19.215,8.331,26.364,2.475l-5.032-1.788,1.4-4.482c-6.275,4.355-12.106,2.938-17.7-1.521Z" transform="translate(-1899.336 -1962.952)" fill="#037ee6"/>
          <path id="Path_1380" data-name="Path 1380" d="M661.379,1194.627v4.855l4.618.2c2.995-1.942,7.331-1.786,12.789-.039l3.172-7.032C673.664,1189.059,666.864,1189.907,661.379,1194.627Z" transform="translate(-656.618 -1190.424)" fill="#037ee6"/>
          <path id="Path_1381" data-name="Path 1381" d="M1260.148,1285.458l-2.594-5.4,5.766-1.628a31.063,31.063,0,0,1,9.171,7.105c2.652,5.84,6.291,10.825,10.843,12.952l-5.974.063.92,5.211a47.433,47.433,0,0,1-6.586-4.69l-4.486-7.975A14.52,14.52,0,0,0,1260.148,1285.458Z" transform="translate(-1237.98 -1276.239)" fill="#037ee6"/>
          <path id="Path_1382" data-name="Path 1382" d="M1215.9,1534.913c-1.755,1.876-2.9,4.642-4.552,6.608-2.63,3.135-5.909,7.185-11.827,7.711l4.831,2.5-2.876,4.716A26.688,26.688,0,0,0,1221,1541.064v-6.9Z" transform="translate(-1181.385 -1525.621)" fill="#037ee6"/>
        </g>
        <path id="Path_1561" data-name="Path 1561" d="M377.8,668.536l-.106.859-.148,1.216-.059.5-.15,1.216-.062.507-.147,1.213-1.67,13.808c-.151,1.233-2.166,2.192-4.594,2.192H362.09c-2.431,0-4.426-.959-4.591-2.192l-1.688-13.808-.148-1.213-.062-.507-.15-1.216-.059-.5-.147-1.216-.106-.859c-.086-.7,1-1.286,2.381-1.286h17.9C376.789,667.25,377.881,667.84,377.8,668.536Z" transform="translate(-280.005 -436.926)" fill="#faf076"/>
        <path id="Path_1562" data-name="Path 1562" d="M277.454,623.15l-.148,1.213H255.158l-.148-1.213Z" transform="translate(-179.77 -390.681)"/>
        <path id="Path_1563" data-name="Path 1563" d="M277.741,628.98l-.148,1.216H255.86l-.15-1.216Z" transform="translate(-180.263 -394.791)"/>
        <path id="Path_1564" data-name="Path 1564" d="M278.036,634.81l-.148,1.216H256.578l-.148-1.216Z" transform="translate(-180.771 -398.901)"/>
        <path id="Path_1508" data-name="Path 1508" d="M672.225,419.931l-1.844-.67a6.706,6.706,0,0,0,.923-5.09s-.776-3.381-.407-4.75,1.328-6.388,1.328-6.388.136-5.311-2.735-7.745-4.862-4.426-3.756-2.065a32.851,32.851,0,0,0,1.623,3.172s-6.86,1.643-4.426,4.216,3.1,2.57,3.1,2.57-.811,6.344-.959,7.524-1.475,10.179-1.475,10.179-.074,4.278.664,4.942a3.337,3.337,0,0,0,3.541,2.655C668.325,428.473,674.586,421.554,672.225,419.931Z" transform="translate(-496.619 -243.005)" fill="#fdc2cc"/>
        <path id="Path_1512" data-name="Path 1512" d="M707.677,462.469l-3.909,8.424-4.647,3.393-.811-5.243s-1.57-3.467-2.245-4.054a.34.34,0,0,0-.115-.077c-.59-.221-6.2,3.319-7.819,3.983s-7.45.811-7.45.811l2.582-9.22s5.163-1.918,5.827-2.8a53.693,53.693,0,0,1,6.122-5.9c2.065-1.623,5.833-1.033,5.833-1.033l.059.024.968.419,2.8,6.86Z" transform="translate(-509.499 -284.23)" fill="#fdc2cc"/>
        <path id="Path_1519" data-name="Path 1519" d="M778.532,359.862a10.548,10.548,0,0,1-10.548,10.548,7.357,7.357,0,0,1-.808-.029h0a10.548,10.548,0,1,1,11.359-10.518Z" transform="translate(-563.611 -212.798)" fill="#fdc2cc"/>
        <path id="Path_1526" data-name="Path 1526" d="M780.076,391.417l-2.065,8.748a10.687,10.687,0,0,1-2.868-1.921,8.738,8.738,0,0,0-2.095-1.753,9.092,9.092,0,0,0-3.638-.5,17.5,17.5,0,0,1-4.55-.779,3.21,3.21,0,0,1-1.18-.572,2.868,2.868,0,0,1-.59-2.493,38.25,38.25,0,0,0,.044-5.1c-.018-.319-.041-.637-.068-.956-.118-1.425-.5-3.077-1.959-3.688-.749-.3-1.643-.271-2.36-.629a1.952,1.952,0,0,1-.3-.183c-1.062-.744-1.159-2.234-1.118-3.487q.094-2.585.18-5.172a15.034,15.034,0,0,0-.056-2.552h0a5.666,5.666,0,0,0-.46-1.629c-.64-1.369-1.974-2.511-2.213-3.957a1.61,1.61,0,0,1-.027-.2c-.124-1.292.69-2.5.977-3.768.572-2.558-1.351-5.361-4.181-6.1-.885-.23-1.835-.274-2.717-.537a4.36,4.36,0,0,1-.416-.148,12.385,12.385,0,0,1,9.955-4.721c6.588,0,11.932,4.721,11.932,10.548a10.123,10.123,0,0,1-4.408,8.188c.018.083.038.168.062.251A18.557,18.557,0,0,0,768.8,373.8l6.68,2.124.744.236C781.746,379.7,780.076,391.417,780.076,391.417Z" transform="translate(-557.253 -212.801)" opacity="0.1"/>
        <path id="Path_1529" data-name="Path 1529" d="M758.006,329.918a25.373,25.373,0,0,0-5.63-.658,3.116,3.116,0,0,0-1.77.372c-.652.457-.735,1.283-.929,2a5.541,5.541,0,0,1-2.109,2.95c-.7.51-1.522.885-2.192,1.422a2.288,2.288,0,0,0-1.012,2.118,2.62,2.62,0,0,0,1.936,1.64c.885.251,1.826.3,2.718.537,2.829.735,4.75,3.541,4.178,6.093-.3,1.272-1.1,2.475-.977,3.768.145,1.543,1.57,2.732,2.239,4.163a9,9,0,0,1,.522,4.178l-.18,5.175c-.047,1.363.071,3,1.416,3.67.72.354,1.617.316,2.36.628,1.458.608,1.841,2.263,1.959,3.685a38.084,38.084,0,0,1,.024,6.057,2.841,2.841,0,0,0,.59,2.493,3.163,3.163,0,0,0,1.18.572,17.5,17.5,0,0,0,4.55.779,9.189,9.189,0,0,1,3.638.5,8.807,8.807,0,0,1,2.095,1.753,11.577,11.577,0,0,0,6.839,2.995,2.037,2.037,0,0,0,1.546-.316c.381-.351.156-1.109-.386-1.065a2.623,2.623,0,0,0,2.484-.95,2.1,2.1,0,0,0,0-2.411c-.617-.885-1.927-1.475-2-2.526a3.115,3.115,0,0,1,.661-1.649,6.936,6.936,0,0,0-1.074-8.261c-1.384-1.431-3.458-2.517-3.942-4.352-.322-1.227.165-2.517-.021-3.765-.3-2.065-2.34-3.541-3.464-5.382a9.357,9.357,0,0,1-1.036-6.164,43.859,43.859,0,0,1,1.6-6.167,7.958,7.958,0,0,0,.313-4.641,8.5,8.5,0,0,0-1.891-2.877,21.3,21.3,0,0,0-6.715-5.311,12.279,12.279,0,0,0-8.769-.808" transform="translate(-554.37 -198.659)"/>
      </g>
      <g id="Group_817" data-name="Group 817" transform="translate(-1335.735 -879.385)">
        <rect id="Rectangle_301" data-name="Rectangle 301" width="7.223" height="7.222" transform="matrix(0.978, -0.21, 0.21, 0.978, 6.47, 4.938)"/>
        <path id="Path_1282" data-name="Path 1282" d="M228.2,276.51l1.842,8.574-8.575,1.842-1.842-8.575Zm1.389,8.282-1.682-7.829-7.829,1.682,1.682,7.829Z" transform="translate(-219.623 -276.51)"/>
      </g>
      <g id="Group_818" data-name="Group 818" transform="translate(-1153.584 -909.351)">
        <rect id="Rectangle_301-2" data-name="Rectangle 301" width="10.495" height="10.495" transform="matrix(0.978, -0.21, 0.21, 0.978, 9.402, 7.175)" fill="#faf076"/>
        <path id="Path_1282-2" data-name="Path 1282" d="M232.083,276.51l2.677,12.46-12.46,2.677-2.677-12.46Zm2.019,12.034-2.444-11.376-11.376,2.444,2.444,11.376Z" transform="translate(-219.623 -276.51)" fill="#faf076"/>
      </g>
    </g>
  </g>
</svg>
